999
dxfrw 0.6.3
  0
SECTION
  2
HEADER
  9
$ACADVER
  1
AC1021
  9
$DWGCODEPAGE
  3
ANSI_1252
  9
$INSBASE
 10
0
 20
0
 30
0
  9
$EXTMIN
 10
-135.2375730000002
 20
-169.6047428082886
 30
0
  9
$EXTMAX
 10
205.7284661197357
 20
412.192791
 30
0
  9
$LIMMIN
 10
0
 20
0
  9
$LIMMAX
 10
420
 20
297
  9
$ORTHOMODE
 70
    0
  9
$REGENMODE
 70
    1
  9
$FILLMODE
 70
    1
  9
$QTEXTMODE
 70
    0
  9
$MIRRTEXT
 70
    0
  9
$LTSCALE
 40
1
  9
$ATTMODE
 70
    1
  9
$TEXTSIZE
 40
2.5
  9
$TRACEWID
 40
1
  9
$TEXTSTYLE
  7
Standard
  9
$CLAYER
  8
0
  9
$CELTYPE
  6
ByLayer
  9
$CECOLOR
 62
  256
  9
$CELTSCALE
 40
1
  9
$DISPSILH
 70
    0
  9
$DIMSCALE
 40
1
  9
$DIMASZ
 40
2.5
  9
$DIMEXO
 40
0.625
  9
$DIMDLI
 40
3.75
  9
$DIMRND
 40
0
  9
$DIMDLE
 40
0
  9
$DIMEXE
 40
1.25
  9
$DIMTP
 40
0
  9
$DIMTM
 40
0
  9
$DIMTXT
 40
2.5
  9
$DIMCEN
 40
2.5
  9
$DIMTSZ
 40
0
  9
$DIMTOL
 70
    0
  9
$DIMLIM
 70
    0
  9
$DIMTIH
 70
    0
  9
$DIMTOH
 70
    0
  9
$DIMSE1
 70
    0
  9
$DIMSE2
 70
    0
  9
$DIMTAD
 70
    1
  9
$DIMZIN
 70
    8
  9
$DIMBLK
  1

  9
$DIMASO
 70
    1
  9
$DIMSHO
 70
    1
  9
$DIMPOST
  1

  9
$DIMAPOST
  1

  9
$DIMALT
 70
    0
  9
$DIMALTD
 70
    3
  9
$DIMALTF
 40
0.03937
  9
$DIMLFAC
 40
1
  9
$DIMTOFL
 70
    1
  9
$DIMTVP
 40
0
  9
$DIMTIX
 70
    0
  9
$DIMSOXD
 70
    0
  9
$DIMSAH
 70
    0
  9
$DIMBLK1
  1

  9
$DIMBLK2
  1

  9
$DIMSTYLE
  2
Standard
  9
$DIMCLRD
 70
   18
  9
$DIMCLRE
 70
   18
  9
$DIMCLRT
 70
   18
  9
$DIMTFAC
 40
1
  9
$DIMGAP
 40
0.625
  9
$DIMJUST
 70
    0
  9
$DIMSD1
 70
    0
  9
$DIMSD2
 70
    0
  9
$DIMTOLJ
 70
    0
  9
$DIMTZIN
 70
    8
  9
$DIMALTZ
 70
    0
  9
$DIMALTTZ
 70
    0
  9
$DIMUPT
 70
    0
  9
$DIMDEC
 70
    4
  9
$DIMTDEC
 70
    2
  9
$DIMALTU
 70
    2
  9
$DIMALTTD
 70
    3
  9
$DIMTXSTY
  7
Standard
  9
$DIMAUNIT
 70
    0
  9
$DIMADEC
 70
    0
  9
$DIMALTRND
 40
0
  9
$DIMAZIN
 70
    0
  9
$DIMDSEP
 70
   44
  9
$DIMATFIT
 70
    3
  9
$DIMFRAC
 70
    0
  9
$DIMLDRBLK
  1

  9
$DIMLUNIT
 70
    2
  9
$DIMLWD
 70
   -2
  9
$DIMLWE
 70
   -2
  9
$DIMTMOVE
 70
    0
  9
$DIMFXL
 40
1
  9
$DIMFXLON
 70
    0
  9
$DIMJOGANG
 40
0.7853981633974483
  9
$DIMTFILL
 70
    0
  9
$DIMTFILLCLR
 70
    0
  9
$DIMARCSYM
 70
    0
  9
$DIMLTYPE
  6

  9
$DIMLTEX1
  6

  9
$DIMLTEX2
  6

  9
$LUNITS
 70
    2
  9
$LUPREC
 70
    4
  9
$SKETCHINC
 40
1
  9
$FILLETRAD
 40
6
  9
$AUNITS
 70
    0
  9
$AUPREC
 70
    0
  9
$MENU
  1
.
  9
$ELEVATION
 40
0
  9
$PELEVATION
 40
0
  9
$THICKNESS
 40
0
  9
$LIMCHECK
 70
    0
  9
$CHAMFERA
 40
0
  9
$CHAMFERB
 40
0
  9
$CHAMFERC
 40
0
  9
$CHAMFERD
 40
0
  9
$SKPOLY
 70
    0
  9
$USRTIMER
 70
    1
  9
$ANGBASE
 50
0
  9
$ANGDIR
 70
    0
  9
$PDMODE
 70
    0
  9
$PDSIZE
 40
0
  9
$PLINEWID
 40
0
  9
$SPLFRAME
 70
    0
  9
$SPLINETYPE
 70
    6
  9
$SPLINESEGS
 70
    8
  9
$HANDSEED
  5
20000
  9
$SURFTAB1
 70
    6
  9
$SURFTAB2
 70
    6
  9
$SURFTYPE
 70
    6
  9
$SURFU
 70
    6
  9
$SURFV
 70
    6
  9
$UCSBASE
  2

  9
$UCSNAME
  2

  9
$UCSORG
 10
0
 20
0
 30
0
  9
$UCSXDIR
 10
1
 20
0
 30
0
  9
$UCSYDIR
 10
0
 20
1
 30
0
  9
$UCSORTHOREF
  2

  9
$UCSORTHOVIEW
 70
    0
  9
$UCSORGTOP
 10
0
 20
0
 30
0
  9
$UCSORGBOTTOM
 10
0
 20
0
 30
0
  9
$UCSORGLEFT
 10
0
 20
0
 30
0
  9
$UCSORGRIGHT
 10
0
 20
0
 30
0
  9
$UCSORGFRONT
 10
0
 20
0
 30
0
  9
$UCSORGBACK
 10
0
 20
0
 30
0
  9
$PUCSBASE
  2

  9
$PUCSNAME
  2

  9
$PUCSORG
 10
0
 20
0
 30
0
  9
$PUCSXDIR
 10
1
 20
0
 30
0
  9
$PUCSYDIR
 10
0
 20
1
 30
0
  9
$PUCSORTHOREF
  2

  9
$PUCSORTHOVIEW
 70
    0
  9
$PUCSORGTOP
 10
0
 20
0
 30
0
  9
$PUCSORGBOTTOM
 10
0
 20
0
 30
0
  9
$PUCSORGLEFT
 10
0
 20
0
 30
0
  9
$PUCSORGRIGHT
 10
0
 20
0
 30
0
  9
$PUCSORGFRONT
 10
0
 20
0
 30
0
  9
$PUCSORGBACK
 10
0
 20
0
 30
0
  9
$USERI1
 70
    0
  9
$USERI2
 70
    0
  9
$USERI3
 70
    0
  9
$USERI4
 70
    0
  9
$USERI5
 70
    0
  9
$USERR1
 40
0
  9
$USERR2
 40
0
  9
$USERR3
 40
0
  9
$USERR4
 40
0
  9
$USERR5
 40
0
  9
$WORLDVIEW
 70
    1
  9
$SHADEDGE
 70
    3
  9
$SHADEDIF
 70
   70
  9
$TILEMODE
 70
    1
  9
$MAXACTVP
 70
    2
  9
$PINSBASE
 10
0
 20
0
 30
0
  9
$PLIMCHECK
 70
    0
  9
$PEXTMIN
 10
0
 20
0
 30
0
  9
$PEXTMAX
 10
0
 20
0
 30
0
  9
$GRIDMODE
 70
    0
  9
$SNAPSTYLE
 70
    0
  9
$PLIMMIN
 10
0
 20
0
  9
$PLIMMAX
 10
12
 20
9
  9
$UNITMODE
 70
    0
  9
$VISRETAIN
 70
    1
  9
$PLINEGEN
 70
    0
  9
$PSLTSCALE
 70
    1
  9
$TREEDEPTH
 70
 3020
  9
$CMLSTYLE
  2
Standard
  9
$CMLJUST
 70
    0
  9
$CMLSCALE
 40
20
  9
$PROXYGRAPHICS
 70
    1
  9
$MEASUREMENT
 70
    1
  9
$CELWEIGHT
370
   -1
  9
$ENDCAPS
280
    0
  9
$JOINSTYLE
280
    0
  9
$LWDISPLAY
290
    0
  9
$INSUNITS
 70
    4
  9
$HYPERLINKBASE
  1

  9
$STYLESHEET
  1

  9
$XEDIT
290
    1
  9
$CEPSNTYPE
380
    0
  9
$PSTYLEMODE
290
    1
  9
$EXTNAMES
290
    1
  9
$PSVPSCALE
 40
0
  9
$OLESTARTUP
290
    0
  9
$SORTENTS
280
  127
  9
$INDEXCTL
280
    0
  9
$HIDETEXT
280
    1
  9
$XCLIPFRAME
290
    2
  9
$HALOGAP
280
    0
  9
$OBSCOLOR
 70
  257
  9
$OBSLTYPE
280
    0
  9
$INTERSECTIONDISPLAY
280
    0
  9
$INTERSECTIONCOLOR
 70
  257
  9
$DIMASSOC
280
    2
  9
$PROJECTNAME
  1

  9
$CAMERADISPLAY
290
    0
  9
$LENSLENGTH
 40
50
  9
$CAMERAHEIGHT
 40
0
  9
$STEPSPERSEC
 40
2
  9
$STEPSIZE
 40
6
  9
$3DDWFPREC
 40
2
  9
$PSOLWIDTH
 40
0.25
  9
$PSOLHEIGHT
 40
4
  9
$LOFTANG1
 40
1.570796326794896
  9
$LOFTANG2
 40
1.570796326794896
  9
$LOFTMAG1
 40
0
  9
$LOFTMAG2
 40
0
  9
$LOFTPARAM
 70
    7
  9
$LOFTNORMALS
280
    1
  9
$LATITUDE
 40
37.795
  9
$LONGITUDE
 40
-122.394
  9
$NORTHDIRECTION
 40
0
  9
$TIMEZONE
 70
-8000
  9
$LIGHTGLYPHDISPLAY
280
    1
  9
$TILEMODELIGHTSYNCH
280
    1
  9
$SOLIDHIST
280
    0
  9
$SHOWHIST
280
    1
  9
$DWFFRAME
280
    2
  9
$DGNFRAME
280
    2
  9
$REALWORLDSCALE
290
    1
  9
$INTERFERECOLOR
 62
  256
  9
$CSHADOW
280
    0
  9
$SHADOWPLANELOCATION
 40
0
  0
ENDSEC
  0
SECTION
  2
CLASSES
  0
ENDSEC
  0
SECTION
  2
TABLES
  0
TABLE
  2
VPORT
  5
8
330
0
100
AcDbSymbolTable
 70
    1
  0
VPORT
  5
31
330
2
100
AcDbSymbolTableRecord
100
AcDbViewportTableRecord
  2
*ACTIVE
 70
    0
 10
0
 20
0
 11
1
 21
1
 12
471.5999037212932
 22
315.4089214875402
 13
0
 23
0
 14
10
 24
10
 15
10
 25
10
 16
0
 26
0
 36
1
 17
0
 27
0
 37
0
 40
1026.743821195524
 41
1.889150943396226
 42
50
 43
0
 44
0
 50
0
 51
0
 71
    0
 72
  100
 73
    1
 74
    3
 75
    0
 76
    0
 77
    0
 78
    0
281
    0
 65
    1
110
0
120
0
130
0
111
1
121
0
131
0
112
0
122
1
132
0
 79
    0
146
0
348
10020
 60
    7
 61
    5
292
1
282
    1
141
0
142
0
 63
  250
421
3358443
  0
ENDTAB
  0
TABLE
  2
LTYPE
  5
5
330
0
100
AcDbSymbolTable
 70
    4
  0
LTYPE
  5
14
330
5
100
AcDbSymbolTableRecord
100
AcDbLinetypeTableRecord
  2
ByBlock
 70
    0
  3

 72
   65
 73
    0
 40
0
  0
LTYPE
  5
15
330
5
100
AcDbSymbolTableRecord
100
AcDbLinetypeTableRecord
  2
ByLayer
 70
    0
  3

 72
   65
 73
    0
 40
0
  0
LTYPE
  5
16
330
5
100
AcDbSymbolTableRecord
100
AcDbLinetypeTableRecord
  2
Continuous
 70
    0
  3
Solid line
 72
   65
 73
    0
 40
0
  0
LTYPE
  5
32
330
5
100
AcDbSymbolTableRecord
100
AcDbLinetypeTableRecord
  2
DOT
 70
    0
  3
Dot . . . . . . . . . . . . . . . . . . . . . .
 72
   65
 73
    2
 40
6.35
 49
0
 74
    0
 49
-6.35
 74
    0
  0
LTYPE
  5
33
330
5
100
AcDbSymbolTableRecord
100
AcDbLinetypeTableRecord
  2
DOTTINY
 70
    0
  3
Dot (.15x) .....................................
 72
   65
 73
    2
 40
0.9525
 49
0
 74
    0
 49
-0.9525
 74
    0
  0
LTYPE
  5
34
330
5
100
AcDbSymbolTableRecord
100
AcDbLinetypeTableRecord
  2
DOT2
 70
    0
  3
Dot (.5x) .....................................
 72
   65
 73
    2
 40
3.175
 49
0
 74
    0
 49
-3.175
 74
    0
  0
LTYPE
  5
35
330
5
100
AcDbSymbolTableRecord
100
AcDbLinetypeTableRecord
  2
DOTX2
 70
    0
  3
Dot (2x) .  .  .  .  .  .  .  .  .  .  .  .  .
 72
   65
 73
    2
 40
12.7
 49
0
 74
    0
 49
-12.7
 74
    0
  0
LTYPE
  5
36
330
5
100
AcDbSymbolTableRecord
100
AcDbLinetypeTableRecord
  2
DASHED
 70
    0
  3
Dashed _ _ _ _ _ _ _ _ _ _ _ _ _ _ _ _ _
 72
   65
 73
    2
 40
19.05
 49
12.7
 74
    0
 49
-6.35
 74
    0
  0
LTYPE
  5
37
330
5
100
AcDbSymbolTableRecord
100
AcDbLinetypeTableRecord
  2
DASHEDTINY
 70
    0
  3
Dashed (.15x) _ _ _ _ _ _ _ _ _ _ _ _ _ _ _ _ _
 72
   65
 73
    2
 40
2.8575
 49
1.905
 74
    0
 49
-0.9525
 74
    0
  0
LTYPE
  5
38
330
5
100
AcDbSymbolTableRecord
100
AcDbLinetypeTableRecord
  2
DASHED2
 70
    0
  3
Dashed (.5x) _ _ _ _ _ _ _ _ _ _ _ _ _ _ _ _ _
 72
   65
 73
    2
 40
9.524999999999999
 49
6.35
 74
    0
 49
-3.175
 74
    0
  0
LTYPE
  5
39
330
5
100
AcDbSymbolTableRecord
100
AcDbLinetypeTableRecord
  2
DASHEDX2
 70
    0
  3
Dashed (2x) ____  ____  ____  ____  ____  ___
 72
   65
 73
    2
 40
38.09999999999999
 49
25.4
 74
    0
 49
-12.7
 74
    0
  0
LTYPE
  5
3A
330
5
100
AcDbSymbolTableRecord
100
AcDbLinetypeTableRecord
  2
DASHDOT
 70
    0
  3
Dash dot __ . __ . __ . __ . __ . __ . __ . __
 72
   65
 73
    4
 40
25.4
 49
12.7
 74
    0
 49
-6.35
 74
    0
 49
0
 74
    0
 49
-6.35
 74
    0
  0
LTYPE
  5
3B
330
5
100
AcDbSymbolTableRecord
100
AcDbLinetypeTableRecord
  2
DASHDOTTINY
 70
    0
  3
Dash dot (.15x) _._._._._._._._._._._._._._._.
 72
   65
 73
    4
 40
3.81
 49
1.905
 74
    0
 49
-0.9525
 74
    0
 49
0
 74
    0
 49
-0.9525
 74
    0
  0
LTYPE
  5
3C
330
5
100
AcDbSymbolTableRecord
100
AcDbLinetypeTableRecord
  2
DASHDOT2
 70
    0
  3
Dash dot (.5x) _._._._._._._._._._._._._._._.
 72
   65
 73
    4
 40
12.7
 49
6.35
 74
    0
 49
-3.175
 74
    0
 49
0
 74
    0
 49
-3.175
 74
    0
  0
LTYPE
  5
3D
330
5
100
AcDbSymbolTableRecord
100
AcDbLinetypeTableRecord
  2
DASHDOTX2
 70
    0
  3
Dash dot (2x) ____  .  ____  .  ____  .  ___
 72
   65
 73
    4
 40
50.8
 49
25.4
 74
    0
 49
-12.7
 74
    0
 49
0
 74
    0
 49
-12.7
 74
    0
  0
LTYPE
  5
3E
330
5
100
AcDbSymbolTableRecord
100
AcDbLinetypeTableRecord
  2
DIVIDE
 70
    0
  3
Divide ____ . . ____ . . ____ . . ____ . . ____
 72
   65
 73
    6
 40
31.75
 49
12.7
 74
    0
 49
-6.35
 74
    0
 49
0
 74
    0
 49
-6.35
 74
    0
 49
0
 74
    0
 49
-6.35
 74
    0
  0
LTYPE
  5
3F
330
5
100
AcDbSymbolTableRecord
100
AcDbLinetypeTableRecord
  2
DIVIDETINY
 70
    0
  3
Divide (.15x) __..__..__..__..__..__..__..__.._
 72
   65
 73
    6
 40
4.7625
 49
1.905
 74
    0
 49
-0.9525
 74
    0
 49
0
 74
    0
 49
-0.9525
 74
    0
 49
0
 74
    0
 49
-0.9525
 74
    0
  0
LTYPE
  5
40
330
5
100
AcDbSymbolTableRecord
100
AcDbLinetypeTableRecord
  2
DIVIDE2
 70
    0
  3
Divide (.5x) __..__..__..__..__..__..__..__.._
 72
   65
 73
    6
 40
15.875
 49
6.35
 74
    0
 49
-3.175
 74
    0
 49
0
 74
    0
 49
-3.175
 74
    0
 49
0
 74
    0
 49
-3.175
 74
    0
  0
LTYPE
  5
41
330
5
100
AcDbSymbolTableRecord
100
AcDbLinetypeTableRecord
  2
DIVIDEX2
 70
    0
  3
Divide (2x) ________  .  .  ________  .  .  _
 72
   65
 73
    6
 40
63.5
 49
25.4
 74
    0
 49
-12.7
 74
    0
 49
0
 74
    0
 49
-12.7
 74
    0
 49
0
 74
    0
 49
-12.7
 74
    0
  0
LTYPE
  5
42
330
5
100
AcDbSymbolTableRecord
100
AcDbLinetypeTableRecord
  2
BORDER
 70
    0
  3
Border __ __ . __ __ . __ __ . __ __ . __ __ .
 72
   65
 73
    6
 40
44.45
 49
12.7
 74
    0
 49
-6.35
 74
    0
 49
12.7
 74
    0
 49
-6.35
 74
    0
 49
0
 74
    0
 49
-6.35
 74
    0
  0
LTYPE
  5
43
330
5
100
AcDbSymbolTableRecord
100
AcDbLinetypeTableRecord
  2
BORDERTINY
 70
    0
  3
Border (.15x) __.__.__.__.__.__.__.__.__.__.__.
 72
   65
 73
    6
 40
6.6675
 49
1.905
 74
    0
 49
-0.9525
 74
    0
 49
1.905
 74
    0
 49
-0.9525
 74
    0
 49
0
 74
    0
 49
-0.9525
 74
    0
  0
LTYPE
  5
44
330
5
100
AcDbSymbolTableRecord
100
AcDbLinetypeTableRecord
  2
BORDER2
 70
    0
  3
Border (.5x) __.__.__.__.__.__.__.__.__.__.__.
 72
   65
 73
    6
 40
22.225
 49
6.35
 74
    0
 49
-3.175
 74
    0
 49
6.35
 74
    0
 49
-3.175
 74
    0
 49
0
 74
    0
 49
-3.175
 74
    0
  0
LTYPE
  5
45
330
5
100
AcDbSymbolTableRecord
100
AcDbLinetypeTableRecord
  2
BORDERX2
 70
    0
  3
Border (2x) ____  ____  .  ____  ____  .  ___
 72
   65
 73
    6
 40
88.89999999999999
 49
25.4
 74
    0
 49
-12.7
 74
    0
 49
25.4
 74
    0
 49
-12.7
 74
    0
 49
0
 74
    0
 49
-12.7
 74
    0
  0
LTYPE
  5
46
330
5
100
AcDbSymbolTableRecord
100
AcDbLinetypeTableRecord
  2
CENTER
 70
    0
  3
Center ____ _ ____ _ ____ _ ____ _ ____ _ ____
 72
   65
 73
    4
 40
50.8
 49
31.75
 74
    0
 49
-6.35
 74
    0
 49
6.35
 74
    0
 49
-6.35
 74
    0
  0
LTYPE
  5
47
330
5
100
AcDbSymbolTableRecord
100
AcDbLinetypeTableRecord
  2
CENTERTINY
 70
    0
  3
Center (.15x) ___ _ ___ _ ___ _ ___ _ ___ _ ___
 72
   65
 73
    4
 40
7.62
 49
4.7625
 74
    0
 49
-0.9525
 74
    0
 49
0.9525
 74
    0
 49
-0.9525
 74
    0
  0
LTYPE
  5
48
330
5
100
AcDbSymbolTableRecord
100
AcDbLinetypeTableRecord
  2
CENTER2
 70
    0
  3
Center (.5x) ___ _ ___ _ ___ _ ___ _ ___ _ ___
 72
   65
 73
    4
 40
28.575
 49
19.05
 74
    0
 49
-3.175
 74
    0
 49
3.175
 74
    0
 49
-3.175
 74
    0
  0
LTYPE
  5
49
330
5
100
AcDbSymbolTableRecord
100
AcDbLinetypeTableRecord
  2
CENTERX2
 70
    0
  3
Center (2x) ________  __  ________  __  _____
 72
   65
 73
    4
 40
101.6
 49
63.5
 74
    0
 49
-12.7
 74
    0
 49
12.7
 74
    0
 49
-12.7
 74
    0
  0
ENDTAB
  0
TABLE
  2
LAYER
  5
2
330
0
100
AcDbSymbolTable
 70
    1
  0
LAYER
  5
10
330
2
100
AcDbSymbolTableRecord
100
AcDbLayerTableRecord
  2
0
 70
    0
 62
  255
  6
CONTINUOUS
370
   -3
390
F
  0
LAYER
  5
4A
330
2
100
AcDbSymbolTableRecord
100
AcDbLayerTableRecord
  2
black
 70
    0
 62
  255
  6
CONTINUOUS
370
   -3
390
F
  0
LAYER
  5
4B
330
2
100
AcDbSymbolTableRecord
100
AcDbLayerTableRecord
  2
blue
 70
    0
 62
    2
  6
CONTINUOUS
370
   -3
390
F
  0
LAYER
  5
4C
330
2
100
AcDbSymbolTableRecord
100
AcDbLayerTableRecord
  2
brown
 70
    0
 62
  255
  6
CONTINUOUS
370
   -3
390
F
  0
LAYER
  5
4D
330
2
100
AcDbSymbolTableRecord
100
AcDbLayerTableRecord
  2
cyan
 70
    0
 62
    4
  6
CONTINUOUS
370
   -3
390
F
  0
LAYER
  5
4E
330
2
100
AcDbSymbolTableRecord
100
AcDbLayerTableRecord
  2
darkblue
 70
    0
 62
   18
  6
CONTINUOUS
370
   -3
390
F
  0
LAYER
  5
4F
330
2
100
AcDbSymbolTableRecord
100
AcDbLayerTableRecord
  2
darkbrown
 70
    0
 62
   23
  6
CONTINUOUS
370
   -3
390
F
  0
LAYER
  5
50
330
2
100
AcDbSymbolTableRecord
100
AcDbLayerTableRecord
  2
darkcyan
 70
    0
 62
   20
  6
CONTINUOUS
370
   -3
390
F
  0
LAYER
  5
51
330
2
100
AcDbSymbolTableRecord
100
AcDbLayerTableRecord
  2
darkdarkgray
 70
    0
 62
   17
  6
CONTINUOUS
370
   -3
390
F
  0
LAYER
  5
52
330
2
100
AcDbSymbolTableRecord
100
AcDbLayerTableRecord
  2
darkgray
 70
    0
 62
    9
  6
CONTINUOUS
370
   -3
390
F
  0
LAYER
  5
53
330
2
100
AcDbSymbolTableRecord
100
AcDbLayerTableRecord
  2
darkgreen
 70
    0
 62
   19
  6
CONTINUOUS
370
   -3
390
F
  0
LAYER
  5
54
330
2
100
AcDbSymbolTableRecord
100
AcDbLayerTableRecord
  2
darkmagenta
 70
    0
 62
   22
  6
CONTINUOUS
370
   -3
390
F
  0
LAYER
  5
55
330
2
100
AcDbSymbolTableRecord
100
AcDbLayerTableRecord
  2
darkred
 70
    0
 62
   21
  6
CONTINUOUS
370
   -3
390
F
  0
LAYER
  5
56
330
2
100
AcDbSymbolTableRecord
100
AcDbLayerTableRecord
  2
defpoints
 70
    0
 62
  255
  6
CONTINUOUS
290
0
370
   -3
390
F
  0
LAYER
  5
57
330
2
100
AcDbSymbolTableRecord
100
AcDbLayerTableRecord
  2
gray
 70
    0
 62
    8
  6
CONTINUOUS
370
   -3
390
F
  0
LAYER
  5
58
330
2
100
AcDbSymbolTableRecord
100
AcDbLayerTableRecord
  2
green
 70
    0
 62
    3
  6
CONTINUOUS
370
   -3
390
F
  0
LAYER
  5
59
330
2
100
AcDbSymbolTableRecord
100
AcDbLayerTableRecord
  2
lightblue
 70
    0
 62
    1
  6
CONTINUOUS
370
   -3
390
F
  0
LAYER
  5
5A
330
2
100
AcDbSymbolTableRecord
100
AcDbLayerTableRecord
  2
lightcyan
 70
    0
 62
   12
  6
CONTINUOUS
370
   -3
390
F
  0
LAYER
  5
5B
330
2
100
AcDbSymbolTableRecord
100
AcDbLayerTableRecord
  2
lightgreen
 70
    0
 62
   11
  6
CONTINUOUS
370
   -3
390
F
  0
LAYER
  5
5C
330
2
100
AcDbSymbolTableRecord
100
AcDbLayerTableRecord
  2
lightmagenta
 70
    0
 62
   14
  6
CONTINUOUS
370
   -3
390
F
  0
LAYER
  5
5D
330
2
100
AcDbSymbolTableRecord
100
AcDbLayerTableRecord
  2
lightred
 70
    0
 62
   13
  6
CONTINUOUS
370
   -3
390
F
  0
LAYER
  5
5E
330
2
100
AcDbSymbolTableRecord
100
AcDbLayerTableRecord
  2
lightyellow
 70
    0
 62
   24
  6
CONTINUOUS
370
   -3
390
F
  0
LAYER
  5
5F
330
2
100
AcDbSymbolTableRecord
100
AcDbLayerTableRecord
  2
magenta
 70
    0
 62
    6
  6
CONTINUOUS
370
   -3
390
F
  0
LAYER
  5
60
330
2
100
AcDbSymbolTableRecord
100
AcDbLayerTableRecord
  2
red
 70
    0
 62
    5
  6
CONTINUOUS
370
   -3
390
F
  0
LAYER
  5
61
330
2
100
AcDbSymbolTableRecord
100
AcDbLayerTableRecord
  2
top
 70
    0
 62
  255
  6
CONTINUOUS
370
   -3
390
F
  0
LAYER
  5
62
330
2
100
AcDbSymbolTableRecord
100
AcDbLayerTableRecord
  2
white
 70
    0
 62
   16
  6
CONTINUOUS
370
   -3
390
F
  0
LAYER
  5
63
330
2
100
AcDbSymbolTableRecord
100
AcDbLayerTableRecord
  2
yellow
 70
    0
 62
   15
  6
CONTINUOUS
370
   -3
390
F
  0
ENDTAB
  0
TABLE
  2
STYLE
  5
3
330
0
100
AcDbSymbolTable
 70
    3
  0
STYLE
  5
64
330
2
100
AcDbSymbolTableRecord
100
AcDbTextStyleTableRecord
  2
standard
 70
    0
 40
0
 41
1
 50
0
 71
    0
 42
1
  3
standard
  4

  0
ENDTAB
  0
TABLE
  2
VIEW
  5
6
330
0
100
AcDbSymbolTable
 70
    0
  0
ENDTAB
  0
TABLE
  2
UCS
  5
7
330
0
100
AcDbSymbolTable
 70
    0
  0
ENDTAB
  0
TABLE
  2
APPID
  5
9
330
0
100
AcDbSymbolTable
 70
    1
  0
APPID
  5
12
330
9
100
AcDbSymbolTableRecord
100
AcDbRegAppTableRecord
  2
ACAD
 70
    0
  0
APPID
  5
65
330
9
100
AcDbSymbolTableRecord
100
AcDbRegAppTableRecord
  2
LibreCad
 70
    0
  0
ENDTAB
  0
TABLE
  2
DIMSTYLE
  5
A
330
0
100
AcDbSymbolTable
 70
    1
100
AcDbDimStyleTable
 71
    1
  0
DIMSTYLE
105
66
330
A
100
AcDbSymbolTableRecord
100
AcDbDimStyleTableRecord
  2
Standard
 70
    0
 40
1
 41
2.5
 42
0.625
 43
0.38
 44
1.25
 45
0
 46
0
 47
0
 48
0
 49
1
140
2.5
141
0.09
142
0
143
25.4
144
1
145
0
146
1
147
0.625
148
0
 71
    0
 72
    0
 73
    0
 74
    1
 75
    0
 76
    0
 77
    0
 78
    8
 79
    0
170
    0
171
    2
172
    0
173
    0
174
    0
175
    0
176
   18
177
   18
178
   18
179
    0
271
    4
272
    4
273
    2
274
    2
275
    0
276
    0
277
    2
278
   44
279
    0
280
    0
281
    0
282
    0
283
    1
284
    0
285
    0
286
    0
288
    0
289
    3
340
Standard
341

371
   -2
372
   -2
  0
ENDTAB
  0
TABLE
  2
BLOCK_RECORD
  5
1
330
0
100
AcDbSymbolTable
 70
    2
  0
BLOCK_RECORD
  5
1F
330
1
100
AcDbSymbolTableRecord
100
AcDbBlockTableRecord
  2
*Model_Space
 70
    0
280
    1
281
    0
  0
BLOCK_RECORD
  5
1E
330
1
100
AcDbSymbolTableRecord
100
AcDbBlockTableRecord
  2
*Paper_Space
 70
    0
280
    1
281
    0
  0
ENDTAB
  0
ENDSEC
  0
SECTION
  2
BLOCKS
  0
BLOCK
  5
20
330
1F
100
AcDbEntity
  8
0
100
AcDbBlockBegin
  2
*Model_Space
 70
    0
 10
0
 20
0
 30
0
  3
*Model_Space
  1

  0
ENDBLK
  5
21
330
1F
100
AcDbEntity
  8
0
100
AcDbBlockEnd
  0
BLOCK
  5
1C
330
1B
100
AcDbEntity
  8
0
100
AcDbBlockBegin
  2
*Paper_Space
 70
    0
 10
0
 20
0
 30
0
  3
*Paper_Space
  1

  0
ENDBLK
  5
1D
330
1F
100
AcDbEntity
  8
0
100
AcDbBlockEnd
  0
ENDSEC
  0
SECTION
  2
ENTITIES
  0
LWPOLYLINE
  5
67
100
AcDbEntity
  8
0
  6
ByLayer
 62
  256
370
   -1
100
AcDbPolyline
 90
   14
 70
    1
 43
0
 10
-86.83261476842266
 20
15.2397395124476
 42
-0.04527871785253922
 10
-85.75263020670786
 20
15.33822620709525
 10
-73.02610759640038
 20
15.34389620583509
 42
-0.0580549764295016
 10
-71.64672599001528
 20
15.18381750664547
 10
-25.7913140467922
 20
4.373819174160497
 42
-0.4122819937989276
 10
-21.31914372661652
 20
-2.804240961633017
 10
-34.27597371731592
 20
-59.4372988718675
 42
-0.3220409727890018
 10
-39.52783017306015
 20
-64.06938258266372
 10
-84.64055068587425
 20
-68.58065463394517
 42
-0.04987562112089018
 10
-85.83459531412623
 20
-68.58065463394517
 10
-129.8345953141262
 20
-64.18065463394515
 42
-0.38531358612018
 10
-135.2375730000002
 20
-58.21043149268524
 10
-135.2375730000002
 20
1.360237873646112
 42
-0.3620168504359974
 10
-130.3202307184056
 20
7.261750583517832
  0
CIRCLE
  5
68
100
AcDbEntity
  8
0
  6
ByLayer
 62
  256
370
   -1
100
AcDbCircle
 10
-27.16802249648686
 20
-1.466101531169388
 40
1.5
  0
CIRCLE
  5
69
100
AcDbEntity
  8
0
  6
ByLayer
 62
  256
370
   -1
100
AcDbCircle
 10
-129.237573
 20
1.360237873645994
 40
1.5
  0
CIRCLE
  5
6A
100
AcDbEntity
  8
0
  6
ByLayer
 62
  256
370
   -1
100
AcDbCircle
 10
-129.2375730000003
 20
-58.21043149268536
 40
1.5
  0
CIRCLE
  5
6B
100
AcDbEntity
  8
0
  6
ByLayer
 62
  256
370
   -1
100
AcDbCircle
 10
-40.12485248718613
 20
-58.0991594414038
 40
1.5
  0
LWPOLYLINE
  5
6C
100
AcDbEntity
  8
0
  6
ByLayer
 62
  256
370
   -1
100
AcDbPolyline
 90
   21
 70
    0
 43
0
 10
-33.40983299999999
 20
29.86551211418669
 10
-34.22263299999999
 20
29.8651501141867
 10
-34.222196
 20
28.8847101141867
 10
-48.19219499999999
 20
28.8784861141867
 10
-48.19263199999999
 20
29.85892611418669
 10
-49.00543199999999
 20
29.8585641141867
 10
-49.00699099999999
 20
33.35868411418667
 10
-48.19419099999999
 20
33.3590461141867
 10
-48.19642299999999
 20
38.3679251141867
 10
-49.00922299999999
 20
38.36756311418671
 10
-49.01078199999999
 20
41.8676831141867
 10
-48.19798199999999
 20
41.86804511418669
 10
-48.198419
 20
42.84848511418669
 10
-34.22841999999999
 20
42.85470911418668
 10
-34.227983
 20
41.87426911418669
 10
-33.415184
 20
41.87463111418668
 10
-33.41362399999999
 20
38.37451111418669
 10
-34.22642399999999
 20
38.37414911418668
 10
-34.22419199999999
 20
33.3652701141867
 10
-33.41139299999999
 20
33.3656321141867
 10
-33.40983299999999
 20
29.86551211418669
  0
LWPOLYLINE
  5
6D
100
AcDbEntity
  8
0
  6
ByLayer
 62
  256
370
   -1
100
AcDbPolyline
 90
   21
 70
    0
 43
0
 10
-15.18066999999999
 20
47.90763611418669
 10
-15.17843799999999
 20
42.8987561141867
 10
-14.36563799999999
 20
42.89911811418668
 10
-14.36407899999999
 20
39.39899911418669
 10
-15.17687899999999
 20
39.39863611418667
 10
-15.17644199999999
 20
38.4181971141867
 10
-29.14643999999999
 20
38.41197311418669
 10
-29.14687699999999
 20
39.3924121141867
 10
-29.95967699999999
 20
39.3920501141867
 10
-29.961237
 20
42.8921701141867
 10
-29.14843699999999
 20
42.89253211418669
 10
-29.15066799999999
 20
47.9014121141867
 10
-29.96346799999999
 20
47.9010501141867
 10
-29.96502699999999
 20
51.40116911418669
 10
-29.152228
 20
51.40153111418668
 10
-29.15266399999999
 20
52.3819711141867
 10
-15.18266599999999
 20
52.38819511418669
 10
-15.18222899999999
 20
51.4077551141867
 10
-14.36942899999999
 20
51.40811711418671
 10
-14.36786999999999
 20
47.9079981141867
 10
-15.18066999999999
 20
47.90763611418669
  0
LWPOLYLINE
  5
6E
100
AcDbEntity
  8
0
  6
ByLayer
 62
  256
370
   -1
100
AcDbPolyline
 90
   21
 70
    0
 43
0
 10
-110.455211
 20
102.9707541141867
 10
-110.454774
 20
101.9903141141867
 10
-109.641974
 20
101.9906761141867
 10
-109.640415
 20
98.4905571141867
 10
-110.453215
 20
98.49019411418671
 10
-110.450983
 20
93.4813151141867
 10
-109.638183
 20
93.48167711418671
 10
-109.636624
 20
89.9815571141867
 10
-110.449424
 20
89.98119511418672
 10
-110.448987
 20
89.0007551141867
 10
-124.418986
 20
88.99453111418673
 10
-124.419422
 20
89.97497111418672
 10
-125.232222
 20
89.97460911418669
 10
-125.233782
 20
93.4747291141867
 10
-124.420982
 20
93.47509111418671
 10
-124.423213
 20
98.4839711141867
 10
-125.236013
 20
98.48360811418671
 10
-125.237573
 20
101.9837281141867
 10
-124.424773
 20
101.9840901141867
 10
-124.42521
 20
102.9645301141867
 10
-110.455211
 20
102.9707541141867
  0
LWPOLYLINE
  5
6F
100
AcDbEntity
  8
0
  6
ByLayer
 62
  256
370
   -1
100
AcDbPolyline
 90
   21
 70
    0
 43
0
 10
-86.30757499999999
 20
63.3920681141867
 10
-86.30980700000001
 20
68.40094811418669
 10
-87.12260699999999
 20
68.40058611418668
 10
-87.12416599999995
 20
71.90070511418671
 10
-86.31136599999996
 20
71.9010681141867
 10
-86.311803
 20
72.8815081141867
 10
-72.34180399999998
 20
72.88773111418671
 10
-72.34136799999997
 20
71.9072921141867
 10
-71.52856799999998
 20
71.9076541141867
 10
-71.52700799999998
 20
68.4075341141867
 10
-72.33980799999998
 20
68.40717211418671
 10
-72.33757699999998
 20
63.3982921141867
 10
-71.52477699999999
 20
63.39865511418671
 10
-71.52321699999997
 20
59.8985351141867
 10
-72.336017
 20
59.8981731141867
 10
-72.33557999999998
 20
58.9177331141867
 10
-86.30557899999997
 20
58.9115091141867
 10
-86.30601599999999
 20
59.8919491141867
 10
-87.11881599999998
 20
59.89158711418671
 10
-87.120375
 20
63.39170611418669
 10
-86.30757499999999
 20
63.3920681141867
  0
LWPOLYLINE
  5
70
100
AcDbEntity
  8
0
  6
ByLayer
 62
  256
370
   -1
100
AcDbPolyline
 90
   21
 70
    0
 43
0
 10
-87.13734999999998
 20
101.4917031141867
 10
-86.32454999999997
 20
101.4920651141867
 10
-86.32678099999997
 20
106.5009441141867
 10
-87.13958099999996
 20
106.5005821141867
 10
-87.14114099999996
 20
110.0007021141867
 10
-86.32834100000001
 20
110.0010641141867
 10
-86.32877699999997
 20
110.9815041141867
 10
-72.358779
 20
110.9877281141867
 10
-72.35834199999998
 20
110.0072881141867
 10
-71.54554199999998
 20
110.0076501141867
 10
-71.543983
 20
106.5075301141867
 10
-72.35678299999999
 20
106.5071681141867
 10
-72.35455099999999
 20
101.4982891141867
 10
-71.54175099999998
 20
101.4986511141867
 10
-71.54019199999998
 20
97.9985311141867
 10
-72.35299199999999
 20
97.99816911418671
 10
-72.352555
 20
97.01772911418671
 10
-86.322554
 20
97.0115051141867
 10
-86.32298999999996
 20
97.99194511418671
 10
-87.13578999999999
 20
97.99158311418671
 10
-87.13734999999998
 20
101.4917031141867
  0
LWPOLYLINE
  5
71
100
AcDbEntity
  8
0
  6
ByLayer
 62
  256
370
   -1
100
AcDbPolyline
 90
   21
 70
    0
 43
0
 10
-34.24539499999999
 20
80.95470511418671
 10
-34.24495800000001
 20
79.97426511418672
 10
-33.43215799999999
 20
79.97462711418672
 10
-33.430599
 20
76.47450811418669
 10
-34.24339799999999
 20
76.47414611418671
 10
-34.24116699999999
 20
71.4652661141867
 10
-33.42836699999999
 20
71.4656281141867
 10
-33.426808
 20
67.9655091141867
 10
-34.23960799999999
 20
67.96514611418671
 10
-34.23917099999999
 20
66.98470611418671
 10
-48.20916899999999
 20
66.9784831141867
 10
-48.20960599999999
 20
67.95892211418668
 10
-49.02240599999998
 20
67.9585601141867
 10
-49.02396499999999
 20
71.45868011418669
 10
-48.21116599999999
 20
71.4590421141867
 10
-48.21339699999999
 20
76.46792211418669
 10
-49.02619699999998
 20
76.46755911418671
 10
-49.02775599999999
 20
79.96767911418669
 10
-48.21495599999999
 20
79.96804111418672
 10
-48.21539299999999
 20
80.94848111418669
 10
-34.24539499999999
 20
80.95470511418671
  0
LWPOLYLINE
  5
72
100
AcDbEntity
  8
0
  6
ByLayer
 62
  256
370
   -1
100
AcDbPolyline
 90
   21
 70
    0
 43
0
 10
-48.20690599999998
 20
61.8984831141867
 10
-34.23690699999999
 20
61.90470711418668
 10
-34.236471
 20
60.9242671141867
 10
-33.42367099999999
 20
60.92462911418669
 10
-33.422111
 20
57.42451011418669
 10
-34.234911
 20
57.4241471141867
 10
-34.23267999999999
 20
52.41526811418667
 10
-33.41987999999999
 20
52.4156301141867
 10
-33.41832
 20
48.91551011418669
 10
-34.23111999999999
 20
48.91514811418669
 10
-34.230684
 20
47.93470811418671
 10
-48.20068199999999
 20
47.9284841141867
 10
-48.20111899999999
 20
48.9089241141867
 10
-49.013919
 20
48.90856211418668
 10
-49.01547799999999
 20
52.4086821141867
 10
-48.20267799999999
 20
52.40904411418667
 10
-48.20490999999999
 20
57.41792311418669
 10
-49.01771
 20
57.4175611141867
 10
-49.01926899999999
 20
60.91768111418671
 10
-48.20646899999999
 20
60.91804311418669
 10
-48.20690599999998
 20
61.8984831141867
  0
LWPOLYLINE
  5
73
100
AcDbEntity
  8
0
  6
ByLayer
 62
  256
370
   -1
100
AcDbPolyline
 90
   21
 70
    0
 43
0
 10
-90.57254699999999
 20
58.39016811418671
 10
-90.57098799999999
 20
54.89004811418668
 10
-91.383788
 20
54.88968611418669
 10
-91.383351
 20
53.90924611418667
 10
-105.35335
 20
53.9030221141867
 10
-105.353786
 20
54.88346211418668
 10
-106.166586
 20
54.8831001141867
 10
-106.168146
 20
58.3832201141867
 10
-105.355346
 20
58.38358211418671
 10
-105.357577
 20
63.3924611141867
 10
-106.170377
 20
63.39209911418669
 10
-106.171937
 20
66.8922191141867
 10
-105.359137
 20
66.8925811141867
 10
-105.359574
 20
67.8730211141867
 10
-91.38957499999999
 20
67.8792451141867
 10
-91.389138
 20
66.8988051141867
 10
-90.57633800000001
 20
66.8991671141867
 10
-90.57477900000001
 20
63.3990471141867
 10
-91.38757899999999
 20
63.3986851141867
 10
-91.385347
 20
58.3898061141867
 10
-90.57254699999999
 20
58.39016811418671
  0
LWPOLYLINE
  5
74
100
AcDbEntity
  8
0
  6
ByLayer
 62
  256
370
   -1
100
AcDbPolyline
 90
   21
 70
    0
 43
0
 10
-49.03089299999999
 20
87.0085581141867
 10
-49.03245299999999
 20
90.50867811418671
 10
-48.21965299999999
 20
90.50904011418673
 10
-48.22188399999999
 20
95.51792011418671
 10
-49.03468399999999
 20
95.51755811418671
 10
-49.03624399999999
 20
99.01767711418671
 10
-48.22344399999999
 20
99.01803911418671
 10
-48.22388099999999
 20
99.99847911418671
 10
-34.25388199999999
 20
100.0047031141867
 10
-34.253445
 20
99.02426311418671
 10
-33.44064499999999
 20
99.0246251141867
 10
-33.43908599999999
 20
95.52450611418671
 10
-34.25188599999999
 20
95.52414411418671
 10
-34.249654
 20
90.51526411418671
 10
-33.436854
 20
90.51562611418673
 10
-33.43529500000001
 20
87.01550711418672
 10
-34.24809499999999
 20
87.01514411418668
 10
-34.24765799999999
 20
86.03470511418671
 10
-48.217657
 20
86.0284811141867
 10
-48.21809299999999
 20
87.00892111418671
 10
-49.03089299999999
 20
87.0085581141867
  0
LWPOLYLINE
  5
75
100
AcDbEntity
  8
0
  6
ByLayer
 62
  256
370
   -1
100
AcDbPolyline
 90
   21
 70
    0
 43
0
 10
-105.374552
 20
101.4924571141867
 10
-106.187352
 20
101.4920951141867
 10
-106.188911
 20
104.9922151141867
 10
-105.376111
 20
104.9925771141867
 10
-105.376548
 20
105.9730171141867
 10
-91.40654899999998
 20
105.9792411141867
 10
-91.406113
 20
104.9988011141867
 10
-90.59331299999999
 20
104.9991631141867
 10
-90.591753
 20
101.4990441141867
 10
-91.40455300000001
 20
101.4986811141867
 10
-91.40232199999998
 20
96.4898021141867
 10
-90.58952199999997
 20
96.49016411418671
 10
-90.587962
 20
92.9900441141867
 10
-91.40076200000001
 20
92.98968211418671
 10
-91.400325
 20
92.00924211418673
 10
-105.370324
 20
92.00301811418669
 10
-105.370761
 20
92.9834581141867
 10
-106.183561
 20
92.98309611418671
 10
-106.18512
 20
96.4832161141867
 10
-105.37232
 20
96.48357811418671
 10
-105.374552
 20
101.4924571141867
  0
LWPOLYLINE
  5
76
100
AcDbEntity
  8
0
  6
ByLayer
 62
  256
370
   -1
100
AcDbPolyline
 90
   21
 70
    0
 43
0
 10
-67.27566899999999
 20
104.0095521141867
 10
-67.276106
 20
104.9899921141867
 10
-53.30610799999998
 20
104.9962151141867
 10
-53.30567099999999
 20
104.0157761141867
 10
-52.492871
 20
104.0161381141867
 10
-52.49131199999999
 20
100.5160181141867
 10
-53.30411099999999
 20
100.5156561141867
 10
-53.30187999999999
 20
95.50677611418671
 10
-52.48908
 20
95.5071391141867
 10
-52.48752099999999
 20
92.00701911418672
 10
-53.30031999999999
 20
92.00665711418672
 10
-53.29988399999999
 20
91.02621711418671
 10
-67.269882
 20
91.01999311418673
 10
-67.270319
 20
92.00043311418671
 10
-68.08311899999998
 20
92.00007111418671
 10
-68.084678
 20
95.50019011418671
 10
-67.27187799999999
 20
95.5005521141867
 10
-67.27410999999999
 20
100.5094321141867
 10
-68.08690999999999
 20
100.5090701141867
 10
-68.08846899999998
 20
104.0091901141867
 10
-67.27566899999999
 20
104.0095521141867
  0
LWPOLYLINE
  5
77
100
AcDbEntity
  8
0
  6
ByLayer
 62
  256
370
   -1
100
AcDbPolyline
 90
   21
 70
    0
 43
0
 10
-52.48438399999999
 20
84.9661401141867
 10
-52.48282399999999
 20
81.46602011418672
 10
-53.29562399999999
 20
81.46565811418671
 10
-53.293393
 20
76.45677811418669
 10
-52.48059299999999
 20
76.4571401141867
 10
-52.47903299999999
 20
72.9570211141867
 10
-53.29183299999999
 20
72.95665911418672
 10
-53.29139599999999
 20
71.9762191141867
 10
-67.26139499999999
 20
71.9699951141867
 10
-67.261832
 20
72.9504351141867
 10
-68.07463199999999
 20
72.95007311418669
 10
-68.07619100000001
 20
76.45019211418669
 10
-67.26339099999998
 20
76.4505541141867
 10
-67.26562299999999
 20
81.45943411418669
 10
-68.07842299999999
 20
81.45907211418671
 10
-68.079982
 20
84.95919111418669
 10
-67.26718199999999
 20
84.95955411418667
 10
-67.267619
 20
85.93999311418669
 10
-53.29761999999998
 20
85.94621711418671
 10
-53.29718399999999
 20
84.96577711418672
 10
-52.48438399999999
 20
84.9661401141867
  0
LWPOLYLINE
  5
78
100
AcDbEntity
  8
0
  6
ByLayer
 62
  256
370
   -1
100
AcDbPolyline
 90
   21
 70
    0
 43
0
 10
-53.284905
 20
57.40678011418669
 10
-52.47210599999998
 20
57.4071421141867
 10
-52.47054599999999
 20
53.90702311418669
 10
-53.28334599999998
 20
53.9066611141867
 10
-53.28290899999998
 20
52.92622111418669
 10
-67.25290799999999
 20
52.91999711418667
 10
-67.253345
 20
53.90043711418669
 10
-68.06614499999999
 20
53.90007411418668
 10
-68.06770399999999
 20
57.4001941141867
 10
-67.25490399999998
 20
57.4005561141867
 10
-67.257136
 20
62.4094361141867
 10
-68.06993599999998
 20
62.40907411418669
 10
-68.071495
 20
65.90919311418671
 10
-67.25869499999999
 20
65.9095551141867
 10
-67.25913199999999
 20
66.8899951141867
 10
-53.28913299999999
 20
66.89621911418668
 10
-53.28869599999999
 20
65.91577911418671
 10
-52.47589599999999
 20
65.9161411141867
 10
-52.47433699999999
 20
62.41602211418669
 10
-53.28713699999997
 20
62.41566011418668
 10
-53.284905
 20
57.40678011418669
  0
LWPOLYLINE
  5
79
100
AcDbEntity
  8
0
  6
ByLayer
 62
  256
370
   -1
100
AcDbPolyline
 90
   21
 70
    0
 43
0
 10
-87.11567899999999
 20
52.8507071141867
 10
-86.30287899999998
 20
52.85106911418669
 10
-86.30331599999998
 20
53.8315091141867
 10
-72.33331699999998
 20
53.8377331141867
 10
-72.33287999999997
 20
52.85729311418669
 10
-71.52007999999998
 20
52.8576561141867
 10
-71.51852099999998
 20
49.35753611418669
 10
-72.33132099999997
 20
49.35717411418671
 10
-72.32908899999998
 20
44.34829411418667
 10
-71.51628999999998
 20
44.3486561141867
 10
-71.51472999999999
 20
40.84853711418668
 10
-72.32752999999998
 20
40.84817511418669
 10
-72.32709299999998
 20
39.86773511418669
 10
-86.29709199999998
 20
39.86151111418667
 10
-86.29752899999997
 20
40.84195111418668
 10
-87.11032899999996
 20
40.8415891141867
 10
-87.11188799999999
 20
44.3417081141867
 10
-86.299088
 20
44.3420701141867
 10
-86.30131999999996
 20
49.3509501141867
 10
-87.11411999999999
 20
49.35058811418671
 10
-87.11567899999999
 20
52.8507071141867
  0
LWPOLYLINE
  5
7A
100
AcDbEntity
  8
0
  6
ByLayer
 62
  256
370
   -1
100
AcDbPolyline
 90
   21
 70
    0
 43
0
 10
-53.28064599999999
 20
47.84622111418668
 10
-53.28020899999999
 20
46.8657811141867
 10
-52.46740899999998
 20
46.86614311418668
 10
-52.46584999999999
 20
43.3660241141867
 10
-53.27864999999999
 20
43.36566211418668
 10
-53.27641799999999
 20
38.35678211418669
 10
-52.46361799999998
 20
38.3571441141867
 10
-52.46205899999999
 20
34.85702511418668
 10
-53.27485899999999
 20
34.85666211418668
 10
-53.274422
 20
33.87622311418669
 10
-67.24442099999999
 20
33.86999911418668
 10
-67.244857
 20
34.85043811418669
 10
-68.05765699999999
 20
34.85007611418671
 10
-68.05921699999998
 20
38.35019611418667
 10
-67.24641699999999
 20
38.35055811418668
 10
-67.24864799999997
 20
43.35943811418667
 10
-68.06144799999998
 20
43.35907611418668
 10
-68.063008
 20
46.8591951141867
 10
-67.25020799999999
 20
46.85955711418669
 10
-67.25064499999999
 20
47.83999711418669
 10
-53.28064599999999
 20
47.84622111418668
  0
LWPOLYLINE
  5
7B
100
AcDbEntity
  8
0
  6
ByLayer
 62
  256
370
   -1
100
AcDbPolyline
 90
   21
 70
    0
 43
0
 10
-90.566292
 20
44.3490491141867
 10
-91.37909200000001
 20
44.34868711418669
 10
-91.37685999999999
 20
39.3398081141867
 10
-90.56406
 20
39.34017011418668
 10
-90.56250099999998
 20
35.84005011418671
 10
-91.37530099999999
 20
35.83968811418669
 10
-91.37486399999997
 20
34.85924811418668
 10
-105.344862
 20
34.8530241141867
 10
-105.345299
 20
35.83346411418667
 10
-106.158099
 20
35.83310211418669
 10
-106.159658
 20
39.33322111418667
 10
-105.346859
 20
39.33358411418668
 10
-105.34909
 20
44.34246311418667
 10
-106.16189
 20
44.3421011141867
 10
-106.163449
 20
47.84222111418669
 10
-105.35065
 20
47.84258311418671
 10
-105.351086
 20
48.8230231141867
 10
-91.38108800000001
 20
48.8292471141867
 10
-91.38065099999999
 20
47.8488071141867
 10
-90.567851
 20
47.84916911418668
 10
-90.566292
 20
44.3490491141867
  0
LWPOLYLINE
  5
7C
100
AcDbEntity
  8
0
  6
ByLayer
 62
  256
370
   -1
100
AcDbPolyline
 90
   21
 70
    0
 43
0
 10
-124.406239
 20
60.3839741141867
 10
-125.219039
 20
60.3836121141867
 10
-125.220598
 20
63.8837321141867
 10
-124.407798
 20
63.88409411418671
 10
-124.408235
 20
64.8645341141867
 10
-110.438236
 20
64.8707581141867
 10
-110.4378
 20
63.8903181141867
 10
-109.625
 20
63.89068011418668
 10
-109.62344
 20
60.39056011418673
 10
-110.43624
 20
60.39019811418669
 10
-110.434009
 20
55.3813191141867
 10
-109.621209
 20
55.38168111418668
 10
-109.619649
 20
51.88156111418671
 10
-110.432449
 20
51.8811991141867
 10
-110.432013
 20
50.9007591141867
 10
-124.402011
 20
50.89453511418671
 10
-124.402448
 20
51.8749751141867
 10
-125.215248
 20
51.87461311418669
 10
-125.216807
 20
55.3747331141867
 10
-124.404007
 20
55.37509511418668
 10
-124.406239
 20
60.3839741141867
  0
LWPOLYLINE
  5
7D
100
AcDbEntity
  8
0
  6
ByLayer
 62
  256
370
   -1
100
AcDbPolyline
 90
   21
 70
    0
 43
0
 10
-71.53170499999997
 20
78.94853311418672
 10
-72.344505
 20
78.94817111418671
 10
-72.34406799999998
 20
77.96773111418671
 10
-86.314066
 20
77.9615071141867
 10
-86.31450299999999
 20
78.94194711418672
 10
-87.127303
 20
78.94158511418672
 10
-87.12886199999998
 20
82.44170411418669
 10
-86.31606299999999
 20
82.4420671141867
 10
-86.31829399999999
 20
87.45094611418669
 10
-87.13109399999998
 20
87.4505841141867
 10
-87.13265299999996
 20
90.95070411418671
 10
-86.31985300000001
 20
90.9510661141867
 10
-86.32028999999999
 20
91.93150611418673
 10
-72.35029199999998
 20
91.93773011418671
 10
-72.34985499999998
 20
90.95729011418672
 10
-71.537055
 20
90.95765211418673
 10
-71.53549599999998
 20
87.45753211418671
 10
-72.34829499999999
 20
87.45717011418668
 10
-72.346064
 20
82.44829111418673
 10
-71.53326399999997
 20
82.44865311418668
 10
-71.53170499999997
 20
78.94853311418672
  0
LWPOLYLINE
  5
7E
100
AcDbEntity
  8
0
  6
ByLayer
 62
  256
370
   -1
100
AcDbPolyline
 90
   21
 70
    0
 43
0
 10
-91.39183800000001
 20
72.9592441141867
 10
-105.361837
 20
72.9530201141867
 10
-105.362274
 20
73.9334601141867
 10
-106.175074
 20
73.93309811418671
 10
-106.176633
 20
77.4332181141867
 10
-105.363833
 20
77.43358011418668
 10
-105.366065
 20
82.4424591141867
 10
-106.178864
 20
82.44209711418671
 10
-106.180424
 20
85.94221711418672
 10
-105.367624
 20
85.9425791141867
 10
-105.368061
 20
86.92301911418672
 10
-91.398062
 20
86.92924311418669
 10
-91.39762500000001
 20
85.94880311418667
 10
-90.584825
 20
85.9491651141867
 10
-90.58326599999999
 20
82.44904511418673
 10
-91.39606599999998
 20
82.44868311418671
 10
-91.39383399999998
 20
77.4398041141867
 10
-90.58103399999997
 20
77.4401661141867
 10
-90.579475
 20
73.9400461141867
 10
-91.392275
 20
73.9396841141867
 10
-91.39183800000001
 20
72.9592441141867
  0
LWPOLYLINE
  5
7F
100
AcDbEntity
  8
0
  6
ByLayer
 62
  256
370
   -1
100
AcDbPolyline
 90
   21
 70
    0
 43
0
 10
-124.393524
 20
31.8445371141867
 10
-124.393961
 20
32.82497711418669
 10
-125.206761
 20
32.8246151141867
 10
-125.20832
 20
36.32473511418668
 10
-124.39552
 20
36.32509711418668
 10
-124.397752
 20
41.3339761141867
 10
-125.210552
 20
41.33361411418669
 10
-125.212111
 20
44.8337341141867
 10
-124.399311
 20
44.83409611418668
 10
-124.399748
 20
45.81453611418669
 10
-110.429749
 20
45.8207601141867
 10
-110.429312
 20
44.84032011418668
 10
-109.616513
 20
44.84068211418669
 10
-109.614953
 20
41.3405621141867
 10
-110.427753
 20
41.34020011418669
 10
-110.425521
 20
36.33132111418669
 10
-109.612722
 20
36.3316831141867
 10
-109.611162
 20
32.83156311418668
 10
-110.423962
 20
32.83120111418668
 10
-110.423525
 20
31.8507611141867
 10
-124.393524
 20
31.8445371141867
  0
LWPOLYLINE
  5
80
100
AcDbEntity
  8
0
  6
ByLayer
 62
  256
370
   -1
100
AcDbPolyline
 90
   21
 70
    0
 43
0
 10
-125.225294
 20
74.42473111418668
 10
-124.412495
 20
74.42509311418671
 10
-124.414726
 20
79.43397211418672
 10
-125.227526
 20
79.43361011418672
 10
-125.229085
 20
82.9337301141867
 10
-124.416285
 20
82.9340921141867
 10
-124.416722
 20
83.91453211418668
 10
-110.446724
 20
83.92075611418669
 10
-110.446287
 20
82.94031611418671
 10
-109.633487
 20
82.94067811418668
 10
-109.631928
 20
79.44055911418671
 10
-110.444727
 20
79.44019611418673
 10
-110.442496
 20
74.43131711418671
 10
-109.629696
 20
74.43167911418671
 10
-109.628137
 20
70.9315591141867
 10
-110.440937
 20
70.9311971141867
 10
-110.4405
 20
69.9507571141867
 10
-124.410498
 20
69.9445331141867
 10
-124.410935
 20
70.9249731141867
 10
-125.223735
 20
70.9246111141867
 10
-125.225294
 20
74.42473111418668
  0
LINE
  5
81
100
AcDbEntity
  8
0
  6
ByLayer
 62
  256
370
   -1
100
AcDbLine
 10
-86.29709199999998
 20
39.86151111418667
 11
-72.32709299999998
 21
39.86773511418669
  0
CIRCLE
  5
82
100
AcDbEntity
  8
0
  6
ByLayer
 62
  256
370
   -1
100
AcDbCircle
 10
-79.34377799999999
 20
124.9877521141867
 40
1.5
  0
CIRCLE
  5
83
100
AcDbEntity
  8
0
  6
ByLayer
 62
  256
370
   -1
100
AcDbCircle
 10
-129.23766
 20
118.1595441141867
 40
1.5
  0
CIRCLE
  5
84
100
AcDbEntity
  8
0
  6
ByLayer
 62
  256
370
   -1
100
AcDbCircle
 10
4.572187000000006
 20
117.6157441141867
 40
1.5
  0
CIRCLE
  5
85
100
AcDbEntity
  8
0
  6
ByLayer
 62
  256
370
   -1
100
AcDbCircle
 10
4.575296000000006
 20
35.53733611418669
 40
1.5
  0
CIRCLE
  5
86
100
AcDbEntity
  8
0
  6
ByLayer
 62
  256
370
   -1
100
AcDbCircle
 10
-21.150126
 20
17.1139721141867
 40
1.5
  0
CIRCLE
  5
87
100
AcDbEntity
  8
0
  6
ByLayer
 62
  256
370
   -1
100
AcDbCircle
 10
-129.237573
 20
18.3138991141867
 40
1.5
  0
LWPOLYLINE
  5
88
100
AcDbEntity
  8
0
  6
ByLayer
 62
  256
370
   -1
100
AcDbPolyline
 90
   20
 70
    1
 43
0
 10
-99.99006742437486
 20
130.8433298573066
 10
-130.5460871551693
 20
124.0151420853391
 42
0.3511915648225792
 10
-135.2375729999999
 20
118.1595643422192
 10
-135.2375729999999
 20
18.31389913930729
 42
0.4684106142738085
 10
-128.1549152815947
 20
12.41238642943557
 10
-86.83261476842254
 20
19.99313899106516
 42
-0.04527871785253839
 10
-85.75263020670776
 20
20.09162568571287
 10
-73.02610759640002
 20
20.09729568445271
 42
-0.05805497642950238
 10
-71.64672599001494
 20
19.93721698526309
 10
-34.901244944897
 20
11.27480240885693
 42
0.05794322022110495
 10
-33.52453649520247
 20
11.11472311418674
 10
-21.14907444221134
 20
11.11472311418668
 42
0.1566338197460619
 10
-17.65561288915725
 20
12.23663677041076
 10
8.068756548762501
 20
30.65924950718523
 42
0.2418962220157229
 10
10.57529499140687
 20
35.53756304835007
 10
10.57218699132626
 20
117.6159731772676
 42
0.3811295100404432
 10
5.256041355959427
 20
123.5766471880732
 10
-59.00296293189143
 20
130.9486533223813
 42
0.02856375117363431
 10
-59.68681729222303
 20
130.9877521141867
 10
-98.68155326920557
 20
130.9877521141866
 42
0.05501854311255477
  0
CIRCLE
  5
89
100
AcDbEntity
  8
0
  6
ByLayer
 62
  256
370
   -1
100
AcDbCircle
 10
-79.34377699999997
 20
245.4572161994335
 40
1.5
  0
CIRCLE
  5
8A
100
AcDbEntity
  8
0
  6
ByLayer
 62
  256
370
   -1
100
AcDbCircle
 10
-129.23766
 20
238.6290081994335
 40
1.5
  0
CIRCLE
  5
8B
100
AcDbEntity
  8
0
  6
ByLayer
 62
  256
370
   -1
100
AcDbCircle
 10
4.572187000000018
 20
238.0852091994335
 40
1.5
  0
CIRCLE
  5
8C
100
AcDbEntity
  8
0
  6
ByLayer
 62
  256
370
   -1
100
AcDbCircle
 10
4.575296000000018
 20
156.0068001994335
 40
1.5
  0
CIRCLE
  5
8D
100
AcDbEntity
  8
0
  6
ByLayer
 62
  256
370
   -1
100
AcDbCircle
 10
-21.15012599999998
 20
137.5834361994335
 40
1.5
  0
CIRCLE
  5
8E
100
AcDbEntity
  8
0
  6
ByLayer
 62
  256
370
   -1
100
AcDbCircle
 10
-129.237573
 20
138.7833631994335
 40
1.5
  0
LWPOLYLINE
  5
8F
100
AcDbEntity
  8
0
  6
ByLayer
 62
  255
370
   -1
100
AcDbPolyline
 90
   27
 70
    0
 43
0
 10
-30.74288499999998
 20
181.1435341994335
 10
-30.74385599999998
 20
176.8575101994335
 10
-11.69551199999998
 20
176.8458491994335
 10
-11.71171199999998
 20
150.3818821994335
 10
-30.76170899999998
 20
150.3935441994335
 10
-30.76457099999998
 20
145.7185431994335
 10
-51.81456699999998
 20
145.7314291994335
 10
-51.81150599999998
 20
150.7314281994335
 10
-70.86150199999997
 20
150.7430901994334
 10
-70.85782899999998
 20
156.7430891994335
 10
-87.90782599999999
 20
156.7535251994335
 10
-87.91088699999995
 20
151.7535281994335
 10
-106.9608829999999
 20
151.7651901994335
 10
-106.96272
 20
148.7651901994335
 10
-128.012716
 20
148.7780771994335
 10
-127.964844
 20
226.9780571994335
 10
-108.9148479999999
 20
226.9663951994335
 10
-108.913011
 20
229.9664011994335
 10
-89.86301499999996
 20
229.9547391994335
 10
-89.85995399999997
 20
234.9547401994335
 10
-68.80995799999998
 20
234.9418521994335
 10
-68.81363099999999
 20
228.9418541994335
 10
-49.76363499999997
 20
228.9301921994335
 10
-49.76669499999998
 20
223.9301911994335
 10
-30.71669899999998
 20
223.9185291994335
 10
-30.74288499999998
 20
181.1435341994335
 10
-30.74288499999998
 20
181.1435341994335
  0
LWPOLYLINE
  5
90
100
AcDbEntity
  8
0
  6
ByLayer
 62
  256
370
   -1
100
AcDbPolyline
 90
   20
 70
    1
 43
0
 10
-99.99006742437479
 20
251.3127939425535
 10
-130.5460871551692
 20
244.4846061705859
 42
0.3511915648225789
 10
-135.2375729999999
 20
238.629028427466
 10
-135.2375729999999
 20
138.7833632245541
 42
0.4684106142738086
 10
-128.1549152815946
 20
132.8818505146823
 10
-86.8326147684225
 20
140.4626030763119
 42
-0.04527871785253833
 10
-85.75263020670774
 20
140.5610897709596
 10
-73.02610759640001
 20
140.5667597696995
 42
-0.05805497642950238
 10
-71.64672599001494
 20
140.4066810705099
 10
-34.90124494489699
 20
131.7442664941035
 42
0.05794322022110517
 10
-33.52453649520246
 20
131.5841871994335
 10
-21.14907444221132
 20
131.5841871994334
 42
0.1566338197460619
 10
-17.65561288915723
 20
132.7061008556575
 10
8.068756548762519
 20
151.128713592432
 42
0.2418962220157229
 10
10.57529499140688
 20
156.0070271335968
 10
10.57218699132627
 20
238.0854372625144
 42
0.381129510040444
 10
5.25604135595944
 20
244.0461112733201
 10
-59.00296293189142
 20
251.4181174076282
 42
0.02856375117363454
 10
-59.68681729222303
 20
251.4572161994336
 10
-98.68155326920549
 20
251.4572161994334
 42
0.05501854311255466
  0
MTEXT
  5
91
100
AcDbEntity
  8
cyan
  6
ByLayer
 62
  256
370
   -1
100
AcDbMText
 10
-56.69742514185397
 20
140.0653805112745
 30
0
 40
2
 41
8.666667695241063
 71
    1
 72
    5
  1
Atreus
  7
standard
210
0
220
0
230
1
 50
-13.26477602079799
 73
    1
 44
1
  0
MTEXT
  5
92
100
AcDbEntity
  8
cyan
  6
ByLayer
 62
  256
370
   -1
100
AcDbMText
 10
-116.6682285870134
 20
138.6125510784111
 30
0
 40
2
 41
13.05555555555565
 71
    1
 72
    5
  1
by TUTAN
  7
standard
210
0
220
0
230
1
 50
10.39556162452907
 73
    1
 44
1
  0
CIRCLE
  5
93
100
AcDbEntity
  8
0
  6
ByLayer
 62
  256
370
   -1
100
AcDbCircle
 10
-79.343777
 20
369.1984339699771
 40
1.5
  0
CIRCLE
  5
94
100
AcDbEntity
  8
0
  6
ByLayer
 62
  256
370
   -1
100
AcDbCircle
 10
-129.23766
 20
362.3702259699773
 40
1.5
  0
CIRCLE
  5
95
100
AcDbEntity
  8
0
  6
ByLayer
 62
  256
370
   -1
100
AcDbCircle
 10
4.572186999999997
 20
361.8264269699774
 40
1.5
  0
CIRCLE
  5
96
100
AcDbEntity
  8
0
  6
ByLayer
 62
  256
370
   -1
100
AcDbCircle
 10
4.575295999999998
 20
279.7480179699773
 40
1.5
  0
CIRCLE
  5
97
100
AcDbEntity
  8
0
  6
ByLayer
 62
  256
370
   -1
100
AcDbCircle
 10
-21.150126
 20
261.3246539699773
 40
1.5
  0
CIRCLE
  5
98
100
AcDbEntity
  8
0
  6
ByLayer
 62
  256
370
   -1
100
AcDbCircle
 10
-129.237573
 20
262.5245809699773
 40
1.5
  0
LWPOLYLINE
  5
99
100
AcDbEntity
  8
0
  6
ByLayer
 62
  256
370
   -1
100
AcDbPolyline
 90
   20
 70
    1
 43
0
 10
-99.99006742437486
 20
375.0540117130973
 10
-130.5460871551693
 20
368.2258239411296
 42
0.3511915648225783
 10
-135.237573
 20
362.3702461980099
 10
-135.237573
 20
262.5245809950979
 42
0.4684106142738089
 10
-128.1549152815947
 20
256.6230682852261
 10
-86.83261476842256
 20
264.2038208468558
 42
-0.04527871785253845
 10
-85.75263020670778
 20
264.3023075415036
 10
-73.02610759640005
 20
264.3079775402433
 42
-0.05805497642950227
 10
-71.64672599001497
 20
264.1478988410537
 10
-34.90124494489702
 20
255.4854842646476
 42
0.05794322022110472
 10
-33.52453649520248
 20
255.3254049699775
 10
-21.14907444221135
 20
255.3254049699774
 42
0.1566338197460619
 10
-17.65561288915726
 20
256.4473186262014
 10
8.068756548762464
 20
274.8699313629759
 42
0.2418962220157222
 10
10.57529499140686
 20
279.7482449041407
 10
10.57218699132624
 20
361.8266550330582
 42
0.3811295100404415
 10
5.256041355959408
 20
367.7873290438638
 10
-59.00296293189144
 20
375.1593351781717
 42
0.0285637511736342
 10
-59.68681729222306
 20
375.1984339699773
 10
-98.68155326920557
 20
375.1984339699771
 42
0.05501854311255466
  0
LWPOLYLINE
  5
9A
100
AcDbEntity
  8
0
  6
ByLayer
 62
  256
370
   -1
100
AcDbPolyline
 90
   14
 70
    1
 43
0
 10
-86.83261476842266
 20
-74.35363558838395
 42
-0.04527871785253917
 10
-85.75263020670786
 20
-74.2551488937363
 10
-73.02610759640038
 20
-74.24947889499646
 42
-0.0580549764295016
 10
-71.64672599001528
 20
-74.40955759418608
 10
-25.79131404679221
 20
-85.21955592667108
 42
-0.4122819937989274
 10
-21.31914372661653
 20
-92.39761606246451
 10
-34.27597371731592
 20
-149.030673972699
 42
-0.3220409727890016
 10
-39.52783017306018
 20
-153.6627576834952
 10
-84.64055068587425
 20
-158.1740297347767
 42
-0.04987562112089018
 10
-85.83459531412623
 20
-158.1740297347767
 10
-129.8345953141262
 20
-153.7740297347767
 42
-0.38531358612018
 10
-135.2375730000002
 20
-147.8038065935168
 10
-135.2375730000002
 20
-88.23313722718542
 42
-0.3620168504359965
 10
-130.3202307184056
 20
-82.33162451731368
  0
CIRCLE
  5
9B
100
AcDbEntity
  8
0
  6
ByLayer
 62
  256
370
   -1
100
AcDbCircle
 10
-27.16802249648687
 20
-91.05947663200091
 40
1.5
  0
CIRCLE
  5
9C
100
AcDbEntity
  8
0
  6
ByLayer
 62
  256
370
   -1
100
AcDbCircle
 10
-129.237573
 20
-88.23313722718557
 40
1.5
  0
CIRCLE
  5
9D
100
AcDbEntity
  8
0
  6
ByLayer
 62
  256
370
   -1
100
AcDbCircle
 10
-129.2375730000003
 20
-147.8038065935169
 40
1.5
  0
CIRCLE
  5
9E
100
AcDbEntity
  8
0
  6
ByLayer
 62
  256
370
   -1
100
AcDbCircle
 10
-40.12485248718613
 20
-147.6925345422353
 40
1.5
  0
ENDSEC
  0
SECTION
  2
OBJECTS
  0
DICTIONARY
  5
C
330
0
100
AcDbDictionary
281
    1
  3
ACAD_GROUP
350
D
  0
DICTIONARY
  5
D
330
C
100
AcDbDictionary
281
    1
  0
ENDSEC
  0
EOF
