999
dxfrw 0.6.3
  0
SECTION
  2
HEADER
  9
$ACADVER
  1
AC1021
  9
$DWGCODEPAGE
  3
ANSI_1250
  9
$INSBASE
 10
0
 20
0
 30
0
  9
$EXTMIN
 10
-218.0941063280847
 20
-169.604743069272
 30
0
  9
$EXTMAX
 10
10.57529500423154
 20
412.1927910000036
 30
0
  9
$LIMMIN
 10
0
 20
0
  9
$LIMMAX
 10
420
 20
297
  9
$ORTHOMODE
 70
    0
  9
$REGENMODE
 70
    1
  9
$FILLMODE
 70
    1
  9
$QTEXTMODE
 70
    0
  9
$MIRRTEXT
 70
    0
  9
$LTSCALE
 40
1
  9
$ATTMODE
 70
    1
  9
$TEXTSIZE
 40
2.5
  9
$TRACEWID
 40
1
  9
$TEXTSTYLE
  7
Standard
  9
$CLAYER
  8
0
  9
$CELTYPE
  6
ByLayer
  9
$CECOLOR
 62
  256
  9
$CELTSCALE
 40
1
  9
$DISPSILH
 70
    0
  9
$DIMSCALE
 40
1
  9
$DIMASZ
 40
2.5
  9
$DIMEXO
 40
0.625
  9
$DIMDLI
 40
3.75
  9
$DIMRND
 40
0
  9
$DIMDLE
 40
0
  9
$DIMEXE
 40
1.25
  9
$DIMTP
 40
0
  9
$DIMTM
 40
0
  9
$DIMTXT
 40
2.5
  9
$DIMCEN
 40
2.5
  9
$DIMTSZ
 40
0
  9
$DIMTOL
 70
    0
  9
$DIMLIM
 70
    0
  9
$DIMTIH
 70
    0
  9
$DIMTOH
 70
    0
  9
$DIMSE1
 70
    0
  9
$DIMSE2
 70
    0
  9
$DIMTAD
 70
    1
  9
$DIMZIN
 70
    8
  9
$DIMBLK
  1

  9
$DIMASO
 70
    1
  9
$DIMSHO
 70
    1
  9
$DIMPOST
  1

  9
$DIMAPOST
  1

  9
$DIMALT
 70
    0
  9
$DIMALTD
 70
    3
  9
$DIMALTF
 40
0.03937
  9
$DIMLFAC
 40
1
  9
$DIMTOFL
 70
    1
  9
$DIMTVP
 40
0
  9
$DIMTIX
 70
    0
  9
$DIMSOXD
 70
    0
  9
$DIMSAH
 70
    0
  9
$DIMBLK1
  1

  9
$DIMBLK2
  1

  9
$DIMSTYLE
  2
ISO-25
  9
$DIMCLRD
 70
    0
  9
$DIMCLRE
 70
    0
  9
$DIMCLRT
 70
    0
  9
$DIMTFAC
 40
1
  9
$DIMGAP
 40
0.625
  9
$DIMJUST
 70
    0
  9
$DIMSD1
 70
    0
  9
$DIMSD2
 70
    0
  9
$DIMTOLJ
 70
    0
  9
$DIMTZIN
 70
    8
  9
$DIMALTZ
 70
    0
  9
$DIMALTTZ
 70
    0
  9
$DIMUPT
 70
    0
  9
$DIMDEC
 70
    2
  9
$DIMTDEC
 70
    2
  9
$DIMALTU
 70
    2
  9
$DIMALTTD
 70
    3
  9
$DIMTXSTY
  7
Standard
  9
$DIMAUNIT
 70
    0
  9
$DIMADEC
 70
    0
  9
$DIMALTRND
 40
0
  9
$DIMAZIN
 70
    0
  9
$DIMDSEP
 70
   44
  9
$DIMATFIT
 70
    3
  9
$DIMFRAC
 70
    0
  9
$DIMLDRBLK
  1

  9
$DIMLUNIT
 70
    2
  9
$DIMLWD
 70
   -2
  9
$DIMLWE
 70
   -2
  9
$DIMTMOVE
 70
    0
  9
$DIMFXL
 40
1
  9
$DIMFXLON
 70
    0
  9
$DIMJOGANG
 40
0.7854
  9
$DIMTFILL
 70
    0
  9
$DIMTFILLCLR
 70
    0
  9
$DIMARCSYM
 70
    0
  9
$DIMLTYPE
  6

  9
$DIMLTEX1
  6

  9
$DIMLTEX2
  6

  9
$LUNITS
 70
    2
  9
$LUPREC
 70
    4
  9
$SKETCHINC
 40
1
  9
$FILLETRAD
 40
0
  9
$AUNITS
 70
    0
  9
$AUPREC
 70
    0
  9
$MENU
  1
.
  9
$ELEVATION
 40
0
  9
$PELEVATION
 40
0
  9
$THICKNESS
 40
0
  9
$LIMCHECK
 70
    0
  9
$CHAMFERA
 40
0
  9
$CHAMFERB
 40
0
  9
$CHAMFERC
 40
0
  9
$CHAMFERD
 40
0
  9
$SKPOLY
 70
    0
  9
$USRTIMER
 70
    1
  9
$ANGBASE
 50
0
  9
$ANGDIR
 70
    0
  9
$PDMODE
 70
    0
  9
$PDSIZE
 40
0
  9
$PLINEWID
 40
0
  9
$SPLFRAME
 70
    0
  9
$SPLINETYPE
 70
    6
  9
$SPLINESEGS
 70
    8
  9
$HANDSEED
  5
20000
  9
$SURFTAB1
 70
    6
  9
$SURFTAB2
 70
    6
  9
$SURFTYPE
 70
    6
  9
$SURFU
 70
    6
  9
$SURFV
 70
    6
  9
$UCSBASE
  2

  9
$UCSNAME
  2

  9
$UCSORG
 10
0
 20
0
 30
0
  9
$UCSXDIR
 10
1
 20
0
 30
0
  9
$UCSYDIR
 10
0
 20
1
 30
0
  9
$UCSORTHOREF
  2

  9
$UCSORTHOVIEW
 70
    0
  9
$UCSORGTOP
 10
0
 20
0
 30
0
  9
$UCSORGBOTTOM
 10
0
 20
0
 30
0
  9
$UCSORGLEFT
 10
0
 20
0
 30
0
  9
$UCSORGRIGHT
 10
0
 20
0
 30
0
  9
$UCSORGFRONT
 10
0
 20
0
 30
0
  9
$UCSORGBACK
 10
0
 20
0
 30
0
  9
$PUCSBASE
  2

  9
$PUCSNAME
  2

  9
$PUCSORG
 10
0
 20
0
 30
0
  9
$PUCSXDIR
 10
1
 20
0
 30
0
  9
$PUCSYDIR
 10
0
 20
1
 30
0
  9
$PUCSORTHOREF
  2

  9
$PUCSORTHOVIEW
 70
    0
  9
$PUCSORGTOP
 10
0
 20
0
 30
0
  9
$PUCSORGBOTTOM
 10
0
 20
0
 30
0
  9
$PUCSORGLEFT
 10
0
 20
0
 30
0
  9
$PUCSORGRIGHT
 10
0
 20
0
 30
0
  9
$PUCSORGFRONT
 10
0
 20
0
 30
0
  9
$PUCSORGBACK
 10
0
 20
0
 30
0
  9
$USERI1
 70
    0
  9
$USERI2
 70
    0
  9
$USERI3
 70
    0
  9
$USERI4
 70
    0
  9
$USERI5
 70
    0
  9
$USERR1
 40
0
  9
$USERR2
 40
0
  9
$USERR3
 40
0
  9
$USERR4
 40
0
  9
$USERR5
 40
0
  9
$WORLDVIEW
 70
    1
  9
$SHADEDGE
 70
    3
  9
$SHADEDIF
 70
   70
  9
$TILEMODE
 70
    1
  9
$MAXACTVP
 70
   64
  9
$PINSBASE
 10
0
 20
0
 30
0
  9
$PLIMCHECK
 70
    0
  9
$PEXTMIN
 10
0
 20
0
 30
0
  9
$PEXTMAX
 10
0
 20
0
 30
0
  9
$GRIDMODE
 70
    0
  9
$SNAPSTYLE
 70
    0
  9
$PLIMMIN
 10
0
 20
0
  9
$PLIMMAX
 10
12
 20
9
  9
$UNITMODE
 70
    0
  9
$VISRETAIN
 70
    1
  9
$PLINEGEN
 70
    0
  9
$PSLTSCALE
 70
    1
  9
$TREEDEPTH
 70
 3020
  9
$CMLSTYLE
  2
Standard
  9
$CMLJUST
 70
    0
  9
$CMLSCALE
 40
20
  9
$PROXYGRAPHICS
 70
    1
  9
$MEASUREMENT
 70
    1
  9
$CELWEIGHT
370
   -1
  9
$ENDCAPS
280
    0
  9
$JOINSTYLE
280
    0
  9
$LWDISPLAY
290
    0
  9
$INSUNITS
 70
    4
  9
$HYPERLINKBASE
  1

  9
$STYLESHEET
  1

  9
$XEDIT
290
    1
  9
$CEPSNTYPE
380
    0
  9
$PSTYLEMODE
290
    1
  9
$EXTNAMES
290
    1
  9
$PSVPSCALE
 40
0
  9
$OLESTARTUP
290
    0
  9
$SORTENTS
280
  127
  9
$INDEXCTL
280
    0
  9
$HIDETEXT
280
    1
  9
$XCLIPFRAME
290
    0
  9
$HALOGAP
280
    0
  9
$OBSCOLOR
 70
  257
  9
$OBSLTYPE
280
    0
  9
$INTERSECTIONDISPLAY
280
    0
  9
$INTERSECTIONCOLOR
 70
  257
  9
$DIMASSOC
280
    1
  9
$PROJECTNAME
  1

  9
$CAMERADISPLAY
290
    0
  9
$LENSLENGTH
 40
50
  9
$CAMERAHEIGHT
 40
0
  9
$STEPSPERSEC
 40
2
  9
$STEPSIZE
 40
50
  9
$3DDWFPREC
 40
2
  9
$PSOLWIDTH
 40
5
  9
$PSOLHEIGHT
 40
80
  9
$LOFTANG1
 40
1.570796326794897
  9
$LOFTANG2
 40
1.570796326794897
  9
$LOFTMAG1
 40
0
  9
$LOFTMAG2
 40
0
  9
$LOFTPARAM
 70
    7
  9
$LOFTNORMALS
280
    1
  9
$LATITUDE
 40
1
  9
$LONGITUDE
 40
1
  9
$NORTHDIRECTION
 40
0
  9
$TIMEZONE
 70
-8000
  9
$LIGHTGLYPHDISPLAY
280
    1
  9
$TILEMODELIGHTSYNCH
280
    1
  9
$SOLIDHIST
280
    1
  9
$SHOWHIST
280
    1
  9
$DWFFRAME
280
    2
  9
$DGNFRAME
280
    0
  9
$REALWORLDSCALE
290
    1
  9
$INTERFERECOLOR
 62
    1
  9
$CSHADOW
280
    0
  9
$SHADOWPLANELOCATION
 40
0
  0
ENDSEC
  0
SECTION
  2
CLASSES
  0
ENDSEC
  0
SECTION
  2
TABLES
  0
TABLE
  2
VPORT
  5
8
330
0
100
AcDbSymbolTable
 70
    1
  0
VPORT
  5
31
330
2
100
AcDbSymbolTableRecord
100
AcDbViewportTableRecord
  2
*ACTIVE
 70
    0
 10
0
 20
0
 11
1
 21
1
 12
9.07990822627035
 22
116.8927991071309
 13
0
 23
0
 14
10
 24
10
 15
10
 25
10
 16
0
 26
0
 36
1
 17
0
 27
0
 37
0
 40
149.5099451626652
 41
1.889150943396226
 42
50
 43
0
 44
0
 50
0
 51
0
 71
    0
 72
  100
 73
    1
 74
    3
 75
    0
 76
    0
 77
    0
 78
    0
281
    0
 65
    1
110
0
120
0
130
0
111
1
121
0
131
0
112
0
122
1
132
0
 79
    0
146
0
348
10020
 60
    7
 61
    5
292
1
282
    1
141
0
142
0
 63
  250
421
3358443
  0
ENDTAB
  0
TABLE
  2
LTYPE
  5
5
330
0
100
AcDbSymbolTable
 70
    4
  0
LTYPE
  5
14
330
5
100
AcDbSymbolTableRecord
100
AcDbLinetypeTableRecord
  2
ByBlock
 70
    0
  3

 72
   65
 73
    0
 40
0
  0
LTYPE
  5
15
330
5
100
AcDbSymbolTableRecord
100
AcDbLinetypeTableRecord
  2
ByLayer
 70
    0
  3

 72
   65
 73
    0
 40
0
  0
LTYPE
  5
16
330
5
100
AcDbSymbolTableRecord
100
AcDbLinetypeTableRecord
  2
Continuous
 70
    0
  3
Solid line
 72
   65
 73
    0
 40
0
  0
LTYPE
  5
32
330
5
100
AcDbSymbolTableRecord
100
AcDbLinetypeTableRecord
  2
DOT
 70
    0
  3
Dot . . . . . . . . . . . . . . . . . . . . . .
 72
   65
 73
    2
 40
6.35
 49
0
 74
    0
 49
-6.35
 74
    0
  0
LTYPE
  5
33
330
5
100
AcDbSymbolTableRecord
100
AcDbLinetypeTableRecord
  2
DOTTINY
 70
    0
  3
Dot (.15x) .....................................
 72
   65
 73
    2
 40
0.9525
 49
0
 74
    0
 49
-0.9525
 74
    0
  0
LTYPE
  5
34
330
5
100
AcDbSymbolTableRecord
100
AcDbLinetypeTableRecord
  2
DOT2
 70
    0
  3
Dot (.5x) .....................................
 72
   65
 73
    2
 40
3.175
 49
0
 74
    0
 49
-3.175
 74
    0
  0
LTYPE
  5
35
330
5
100
AcDbSymbolTableRecord
100
AcDbLinetypeTableRecord
  2
DOTX2
 70
    0
  3
Dot (2x) .  .  .  .  .  .  .  .  .  .  .  .  .
 72
   65
 73
    2
 40
12.7
 49
0
 74
    0
 49
-12.7
 74
    0
  0
LTYPE
  5
36
330
5
100
AcDbSymbolTableRecord
100
AcDbLinetypeTableRecord
  2
DASHED
 70
    0
  3
Dashed _ _ _ _ _ _ _ _ _ _ _ _ _ _ _ _ _
 72
   65
 73
    2
 40
19.05
 49
12.7
 74
    0
 49
-6.35
 74
    0
  0
LTYPE
  5
37
330
5
100
AcDbSymbolTableRecord
100
AcDbLinetypeTableRecord
  2
DASHEDTINY
 70
    0
  3
Dashed (.15x) _ _ _ _ _ _ _ _ _ _ _ _ _ _ _ _ _
 72
   65
 73
    2
 40
2.8575
 49
1.905
 74
    0
 49
-0.9525
 74
    0
  0
LTYPE
  5
38
330
5
100
AcDbSymbolTableRecord
100
AcDbLinetypeTableRecord
  2
DASHED2
 70
    0
  3
Dashed (.5x) _ _ _ _ _ _ _ _ _ _ _ _ _ _ _ _ _
 72
   65
 73
    2
 40
9.524999999999999
 49
6.35
 74
    0
 49
-3.175
 74
    0
  0
LTYPE
  5
39
330
5
100
AcDbSymbolTableRecord
100
AcDbLinetypeTableRecord
  2
DASHEDX2
 70
    0
  3
Dashed (2x) ____  ____  ____  ____  ____  ___
 72
   65
 73
    2
 40
38.09999999999999
 49
25.4
 74
    0
 49
-12.7
 74
    0
  0
LTYPE
  5
3A
330
5
100
AcDbSymbolTableRecord
100
AcDbLinetypeTableRecord
  2
DASHDOT
 70
    0
  3
Dash dot __ . __ . __ . __ . __ . __ . __ . __
 72
   65
 73
    4
 40
25.4
 49
12.7
 74
    0
 49
-6.35
 74
    0
 49
0
 74
    0
 49
-6.35
 74
    0
  0
LTYPE
  5
3B
330
5
100
AcDbSymbolTableRecord
100
AcDbLinetypeTableRecord
  2
DASHDOTTINY
 70
    0
  3
Dash dot (.15x) _._._._._._._._._._._._._._._.
 72
   65
 73
    4
 40
3.81
 49
1.905
 74
    0
 49
-0.9525
 74
    0
 49
0
 74
    0
 49
-0.9525
 74
    0
  0
LTYPE
  5
3C
330
5
100
AcDbSymbolTableRecord
100
AcDbLinetypeTableRecord
  2
DASHDOT2
 70
    0
  3
Dash dot (.5x) _._._._._._._._._._._._._._._.
 72
   65
 73
    4
 40
12.7
 49
6.35
 74
    0
 49
-3.175
 74
    0
 49
0
 74
    0
 49
-3.175
 74
    0
  0
LTYPE
  5
3D
330
5
100
AcDbSymbolTableRecord
100
AcDbLinetypeTableRecord
  2
DASHDOTX2
 70
    0
  3
Dash dot (2x) ____  .  ____  .  ____  .  ___
 72
   65
 73
    4
 40
50.8
 49
25.4
 74
    0
 49
-12.7
 74
    0
 49
0
 74
    0
 49
-12.7
 74
    0
  0
LTYPE
  5
3E
330
5
100
AcDbSymbolTableRecord
100
AcDbLinetypeTableRecord
  2
DIVIDE
 70
    0
  3
Divide ____ . . ____ . . ____ . . ____ . . ____
 72
   65
 73
    6
 40
31.75
 49
12.7
 74
    0
 49
-6.35
 74
    0
 49
0
 74
    0
 49
-6.35
 74
    0
 49
0
 74
    0
 49
-6.35
 74
    0
  0
LTYPE
  5
3F
330
5
100
AcDbSymbolTableRecord
100
AcDbLinetypeTableRecord
  2
DIVIDETINY
 70
    0
  3
Divide (.15x) __..__..__..__..__..__..__..__.._
 72
   65
 73
    6
 40
4.7625
 49
1.905
 74
    0
 49
-0.9525
 74
    0
 49
0
 74
    0
 49
-0.9525
 74
    0
 49
0
 74
    0
 49
-0.9525
 74
    0
  0
LTYPE
  5
40
330
5
100
AcDbSymbolTableRecord
100
AcDbLinetypeTableRecord
  2
DIVIDE2
 70
    0
  3
Divide (.5x) __..__..__..__..__..__..__..__.._
 72
   65
 73
    6
 40
15.875
 49
6.35
 74
    0
 49
-3.175
 74
    0
 49
0
 74
    0
 49
-3.175
 74
    0
 49
0
 74
    0
 49
-3.175
 74
    0
  0
LTYPE
  5
41
330
5
100
AcDbSymbolTableRecord
100
AcDbLinetypeTableRecord
  2
DIVIDEX2
 70
    0
  3
Divide (2x) ________  .  .  ________  .  .  _
 72
   65
 73
    6
 40
63.5
 49
25.4
 74
    0
 49
-12.7
 74
    0
 49
0
 74
    0
 49
-12.7
 74
    0
 49
0
 74
    0
 49
-12.7
 74
    0
  0
LTYPE
  5
42
330
5
100
AcDbSymbolTableRecord
100
AcDbLinetypeTableRecord
  2
BORDER
 70
    0
  3
Border __ __ . __ __ . __ __ . __ __ . __ __ .
 72
   65
 73
    6
 40
44.45
 49
12.7
 74
    0
 49
-6.35
 74
    0
 49
12.7
 74
    0
 49
-6.35
 74
    0
 49
0
 74
    0
 49
-6.35
 74
    0
  0
LTYPE
  5
43
330
5
100
AcDbSymbolTableRecord
100
AcDbLinetypeTableRecord
  2
BORDERTINY
 70
    0
  3
Border (.15x) __.__.__.__.__.__.__.__.__.__.__.
 72
   65
 73
    6
 40
6.6675
 49
1.905
 74
    0
 49
-0.9525
 74
    0
 49
1.905
 74
    0
 49
-0.9525
 74
    0
 49
0
 74
    0
 49
-0.9525
 74
    0
  0
LTYPE
  5
44
330
5
100
AcDbSymbolTableRecord
100
AcDbLinetypeTableRecord
  2
BORDER2
 70
    0
  3
Border (.5x) __.__.__.__.__.__.__.__.__.__.__.
 72
   65
 73
    6
 40
22.225
 49
6.35
 74
    0
 49
-3.175
 74
    0
 49
6.35
 74
    0
 49
-3.175
 74
    0
 49
0
 74
    0
 49
-3.175
 74
    0
  0
LTYPE
  5
45
330
5
100
AcDbSymbolTableRecord
100
AcDbLinetypeTableRecord
  2
BORDERX2
 70
    0
  3
Border (2x) ____  ____  .  ____  ____  .  ___
 72
   65
 73
    6
 40
88.89999999999999
 49
25.4
 74
    0
 49
-12.7
 74
    0
 49
25.4
 74
    0
 49
-12.7
 74
    0
 49
0
 74
    0
 49
-12.7
 74
    0
  0
LTYPE
  5
46
330
5
100
AcDbSymbolTableRecord
100
AcDbLinetypeTableRecord
  2
CENTER
 70
    0
  3
Center ____ _ ____ _ ____ _ ____ _ ____ _ ____
 72
   65
 73
    4
 40
50.8
 49
31.75
 74
    0
 49
-6.35
 74
    0
 49
6.35
 74
    0
 49
-6.35
 74
    0
  0
LTYPE
  5
47
330
5
100
AcDbSymbolTableRecord
100
AcDbLinetypeTableRecord
  2
CENTERTINY
 70
    0
  3
Center (.15x) ___ _ ___ _ ___ _ ___ _ ___ _ ___
 72
   65
 73
    4
 40
7.62
 49
4.7625
 74
    0
 49
-0.9525
 74
    0
 49
0.9525
 74
    0
 49
-0.9525
 74
    0
  0
LTYPE
  5
48
330
5
100
AcDbSymbolTableRecord
100
AcDbLinetypeTableRecord
  2
CENTER2
 70
    0
  3
Center (.5x) ___ _ ___ _ ___ _ ___ _ ___ _ ___
 72
   65
 73
    4
 40
28.575
 49
19.05
 74
    0
 49
-3.175
 74
    0
 49
3.175
 74
    0
 49
-3.175
 74
    0
  0
LTYPE
  5
49
330
5
100
AcDbSymbolTableRecord
100
AcDbLinetypeTableRecord
  2
CENTERX2
 70
    0
  3
Center (2x) ________  __  ________  __  _____
 72
   65
 73
    4
 40
101.6
 49
63.5
 74
    0
 49
-12.7
 74
    0
 49
12.7
 74
    0
 49
-12.7
 74
    0
  0
ENDTAB
  0
TABLE
  2
LAYER
  5
2
330
0
100
AcDbSymbolTable
 70
    1
  0
LAYER
  5
10
330
2
100
AcDbSymbolTableRecord
100
AcDbLayerTableRecord
  2
0
 70
    0
 62
    7
  6
CONTINUOUS
290
0
370
    9
390
F
  0
LAYER
  5
4A
330
2
100
AcDbSymbolTableRecord
100
AcDbLayerTableRecord
  2
black
 70
    0
 62
    7
  6
CONTINUOUS
290
0
370
    9
390
F
  0
LAYER
  5
4B
330
2
100
AcDbSymbolTableRecord
100
AcDbLayerTableRecord
  2
blue
 70
    0
 62
    2
  6
CONTINUOUS
290
0
370
    9
390
F
  0
LAYER
  5
4C
330
2
100
AcDbSymbolTableRecord
100
AcDbLayerTableRecord
  2
brown
 70
    0
 62
    7
  6
CONTINUOUS
290
0
370
    9
390
F
  0
LAYER
  5
4D
330
2
100
AcDbSymbolTableRecord
100
AcDbLayerTableRecord
  2
cyan
 70
    0
 62
    4
  6
CONTINUOUS
290
0
370
    9
390
F
  0
LAYER
  5
4E
330
2
100
AcDbSymbolTableRecord
100
AcDbLayerTableRecord
  2
darkblue
 70
    0
 62
   18
  6
CONTINUOUS
290
0
370
    9
390
F
  0
LAYER
  5
4F
330
2
100
AcDbSymbolTableRecord
100
AcDbLayerTableRecord
  2
darkbrown
 70
    0
 62
   23
  6
CONTINUOUS
290
0
370
    9
390
F
  0
LAYER
  5
50
330
2
100
AcDbSymbolTableRecord
100
AcDbLayerTableRecord
  2
darkcyan
 70
    0
 62
   20
  6
CONTINUOUS
290
0
370
    9
390
F
  0
LAYER
  5
51
330
2
100
AcDbSymbolTableRecord
100
AcDbLayerTableRecord
  2
darkdarkgray
 70
    0
 62
   17
  6
CONTINUOUS
290
0
370
    9
390
F
  0
LAYER
  5
52
330
2
100
AcDbSymbolTableRecord
100
AcDbLayerTableRecord
  2
darkgray
 70
    0
 62
    9
  6
CONTINUOUS
290
0
370
    9
390
F
  0
LAYER
  5
53
330
2
100
AcDbSymbolTableRecord
100
AcDbLayerTableRecord
  2
darkgreen
 70
    0
 62
   19
  6
CONTINUOUS
290
0
370
    9
390
F
  0
LAYER
  5
54
330
2
100
AcDbSymbolTableRecord
100
AcDbLayerTableRecord
  2
darkmagenta
 70
    0
 62
   22
  6
CONTINUOUS
290
0
370
    9
390
F
  0
LAYER
  5
55
330
2
100
AcDbSymbolTableRecord
100
AcDbLayerTableRecord
  2
darkred
 70
    0
 62
   21
  6
CONTINUOUS
290
0
370
    9
390
F
  0
LAYER
  5
56
330
2
100
AcDbSymbolTableRecord
100
AcDbLayerTableRecord
  2
defpoints
 70
    0
 62
    7
  6
CONTINUOUS
290
0
370
    9
390
F
  0
LAYER
  5
57
330
2
100
AcDbSymbolTableRecord
100
AcDbLayerTableRecord
  2
gray
 70
    0
 62
    8
  6
CONTINUOUS
290
0
370
    9
390
F
  0
LAYER
  5
58
330
2
100
AcDbSymbolTableRecord
100
AcDbLayerTableRecord
  2
green
 70
    0
 62
    3
  6
CONTINUOUS
290
0
370
    9
390
F
  0
LAYER
  5
59
330
2
100
AcDbSymbolTableRecord
100
AcDbLayerTableRecord
  2
lightblue
 70
    0
 62
    1
  6
CONTINUOUS
290
0
370
    9
390
F
  0
LAYER
  5
5A
330
2
100
AcDbSymbolTableRecord
100
AcDbLayerTableRecord
  2
lightcyan
 70
    0
 62
   12
  6
CONTINUOUS
290
0
370
    9
390
F
  0
LAYER
  5
5B
330
2
100
AcDbSymbolTableRecord
100
AcDbLayerTableRecord
  2
lightgreen
 70
    0
 62
   11
  6
CONTINUOUS
290
0
370
    9
390
F
  0
LAYER
  5
5C
330
2
100
AcDbSymbolTableRecord
100
AcDbLayerTableRecord
  2
lightmagenta
 70
    0
 62
   14
  6
CONTINUOUS
290
0
370
    9
390
F
  0
LAYER
  5
5D
330
2
100
AcDbSymbolTableRecord
100
AcDbLayerTableRecord
  2
lightred
 70
    0
 62
   13
  6
CONTINUOUS
290
0
370
    9
390
F
  0
LAYER
  5
5E
330
2
100
AcDbSymbolTableRecord
100
AcDbLayerTableRecord
  2
lightyellow
 70
    0
 62
   24
  6
CONTINUOUS
290
0
370
    9
390
F
  0
LAYER
  5
5F
330
2
100
AcDbSymbolTableRecord
100
AcDbLayerTableRecord
  2
magenta
 70
    0
 62
    6
  6
CONTINUOUS
290
0
370
    9
390
F
  0
LAYER
  5
60
330
2
100
AcDbSymbolTableRecord
100
AcDbLayerTableRecord
  2
red
 70
    0
 62
    5
  6
CONTINUOUS
290
0
370
    9
390
F
  0
LAYER
  5
61
330
2
100
AcDbSymbolTableRecord
100
AcDbLayerTableRecord
  2
top
 70
    0
 62
    7
  6
CONTINUOUS
290
0
370
    9
390
F
  0
LAYER
  5
62
330
2
100
AcDbSymbolTableRecord
100
AcDbLayerTableRecord
  2
white
 70
    0
 62
   16
  6
CONTINUOUS
290
0
370
    9
390
F
  0
LAYER
  5
63
330
2
100
AcDbSymbolTableRecord
100
AcDbLayerTableRecord
  2
yellow
 70
    0
 62
   15
  6
CONTINUOUS
290
0
370
    9
390
F
  0
ENDTAB
  0
TABLE
  2
STYLE
  5
3
330
0
100
AcDbSymbolTable
 70
    3
  0
STYLE
  5
64
330
2
100
AcDbSymbolTableRecord
100
AcDbTextStyleTableRecord
  2
Standard
 70
    0
 40
0
 41
1
 50
0
 71
    0
 42
1
  3
txt
  4

  0
ENDTAB
  0
TABLE
  2
VIEW
  5
6
330
0
100
AcDbSymbolTable
 70
    0
  0
ENDTAB
  0
TABLE
  2
UCS
  5
7
330
0
100
AcDbSymbolTable
 70
    0
  0
ENDTAB
  0
TABLE
  2
APPID
  5
9
330
0
100
AcDbSymbolTable
 70
    1
  0
APPID
  5
12
330
9
100
AcDbSymbolTableRecord
100
AcDbRegAppTableRecord
  2
ACAD
 70
    0
  0
APPID
  5
65
330
9
100
AcDbSymbolTableRecord
100
AcDbRegAppTableRecord
  2
LibreCad
 70
    0
  0
ENDTAB
  0
TABLE
  2
DIMSTYLE
  5
A
330
0
100
AcDbSymbolTable
 70
    1
100
AcDbDimStyleTable
 71
    1
  0
DIMSTYLE
105
66
330
A
100
AcDbSymbolTableRecord
100
AcDbDimStyleTableRecord
  2
Standard
 70
    0
 40
1
 41
2.5
 42
0.625
 43
0.38
 44
1.25
 45
0
 46
0
 47
0
 48
0
 49
1
140
2.5
141
0.09
142
0
143
25.4
144
1
145
0
146
1
147
0.625
148
0
 71
    0
 72
    0
 73
    0
 74
    1
 75
    0
 76
    0
 77
    0
 78
    8
 79
    0
170
    0
171
    2
172
    0
173
    0
174
    0
175
    0
176
    0
177
    0
178
    0
179
    0
271
    2
272
    4
273
    2
274
    2
275
    0
276
    0
277
    2
278
   44
279
    0
280
    0
281
    0
282
    0
283
    1
284
    0
285
    0
286
    0
288
    0
289
    3
340
Standard
341

371
   -2
372
   -2
  0
ENDTAB
  0
TABLE
  2
BLOCK_RECORD
  5
1
330
0
100
AcDbSymbolTable
 70
    2
  0
BLOCK_RECORD
  5
1F
330
1
100
AcDbSymbolTableRecord
100
AcDbBlockTableRecord
  2
*Model_Space
 70
    0
280
    1
281
    0
  0
BLOCK_RECORD
  5
1E
330
1
100
AcDbSymbolTableRecord
100
AcDbBlockTableRecord
  2
*Paper_Space
 70
    0
280
    1
281
    0
  0
ENDTAB
  0
ENDSEC
  0
SECTION
  2
BLOCKS
  0
BLOCK
  5
20
330
1F
100
AcDbEntity
  8
0
100
AcDbBlockBegin
  2
*Model_Space
 70
    0
 10
0
 20
0
 30
0
  3
*Model_Space
  1

  0
ENDBLK
  5
21
330
1F
100
AcDbEntity
  8
0
100
AcDbBlockEnd
  0
BLOCK
  5
1C
330
1B
100
AcDbEntity
  8
0
100
AcDbBlockBegin
  2
*Paper_Space
 70
    0
 10
0
 20
0
 30
0
  3
*Paper_Space
  1

  0
ENDBLK
  5
1D
330
1F
100
AcDbEntity
  8
0
100
AcDbBlockEnd
  0
ENDSEC
  0
SECTION
  2
ENTITIES
  0
LWPOLYLINE
  5
67
100
AcDbEntity
  8
0
  6
ByLayer
 62
  256
370
   -1
100
AcDbPolyline
 90
   21
 70
    0
 43
0
 10
-33.409833
 20
37.656346
 10
-34.222633
 20
37.655984
 10
-34.222196
 20
36.675544
 10
-48.192195
 20
36.66932
 10
-48.192632
 20
37.64976
 10
-49.005432
 20
37.649398
 10
-49.006991
 20
41.149518
 10
-48.194191
 20
41.14988
 10
-48.196423
 20
46.158759
 10
-49.009223
 20
46.158397
 10
-49.010782
 20
49.658517
 10
-48.197982
 20
49.658879
 10
-48.198419
 20
50.639319
 10
-34.22842
 20
50.645543
 10
-34.227983
 20
49.665103
 10
-33.415184
 20
49.665465
 10
-33.413624
 20
46.165345
 10
-34.226424
 20
46.164983
 10
-34.224192
 20
41.156104
 10
-33.411393
 20
41.156466
 10
-33.409833
 20
37.656346
  0
LWPOLYLINE
  5
68
100
AcDbEntity
  8
0
  6
ByLayer
 62
  256
370
   -1
100
AcDbPolyline
 90
   21
 70
    0
 43
0
 10
-15.18067
 20
55.69847
 10
-15.178438
 20
50.68959
 10
-14.365638
 20
50.689952
 10
-14.364079
 20
47.189833
 10
-15.176879
 20
47.18947
 10
-15.176442
 20
46.209031
 10
-29.14644
 20
46.202807
 10
-29.146877
 20
47.183246
 10
-29.959677
 20
47.182884
 10
-29.961237
 20
50.683004
 10
-29.148437
 20
50.683366
 10
-29.150668
 20
55.692246
 10
-29.963468
 20
55.691884
 10
-29.965027
 20
59.192003
 10
-29.152228
 20
59.192365
 10
-29.152664
 20
60.172805
 10
-15.182666
 20
60.179029
 10
-15.182229
 20
59.198589
 10
-14.369429
 20
59.198951
 10
-14.36787
 20
55.698832
 10
-15.18067
 20
55.69847
  0
LWPOLYLINE
  5
69
100
AcDbEntity
  8
0
  6
ByLayer
 62
  256
370
   -1
100
AcDbPolyline
 90
   21
 70
    0
 43
0
 10
-110.455211
 20
110.761588
 10
-110.454774
 20
109.781148
 10
-109.641974
 20
109.78151
 10
-109.640415
 20
106.281391
 10
-110.453215
 20
106.281028
 10
-110.450983
 20
101.272149
 10
-109.638183
 20
101.272511
 10
-109.636624
 20
97.772391
 10
-110.449424
 20
97.772029
 10
-110.448987
 20
96.791589
 10
-124.418986
 20
96.785365
 10
-124.419422
 20
97.765805
 10
-125.232222
 20
97.765443
 10
-125.233782
 20
101.265563
 10
-124.420982
 20
101.265925
 10
-124.423213
 20
106.274805
 10
-125.236013
 20
106.274442
 10
-125.237573
 20
109.774562
 10
-124.424773
 20
109.774924
 10
-124.42521
 20
110.755364
 10
-110.455211
 20
110.761588
  0
LWPOLYLINE
  5
6A
100
AcDbEntity
  8
0
  6
ByLayer
 62
  256
370
   -1
100
AcDbPolyline
 90
   21
 70
    0
 43
0
 10
-86.307575
 20
71.182902
 10
-86.30980700000001
 20
76.191782
 10
-87.122607
 20
76.19141999999999
 10
-87.124166
 20
79.69153900000001
 10
-86.31136600000001
 20
79.691902
 10
-86.311803
 20
80.672342
 10
-72.341804
 20
80.67856500000001
 10
-72.341368
 20
79.698126
 10
-71.52856800000001
 20
79.698488
 10
-71.527008
 20
76.198368
 10
-72.339808
 20
76.19800600000001
 10
-72.337577
 20
71.189126
 10
-71.524777
 20
71.18948899999999
 10
-71.523217
 20
67.689369
 10
-72.336017
 20
67.689007
 10
-72.33557999999999
 20
66.708567
 10
-86.30557899999999
 20
66.702343
 10
-86.306016
 20
67.682783
 10
-87.118816
 20
67.68242100000001
 10
-87.120375
 20
71.18254
 10
-86.307575
 20
71.182902
  0
LWPOLYLINE
  5
6B
100
AcDbEntity
  8
0
  6
ByLayer
 62
  256
370
   -1
100
AcDbPolyline
 90
   21
 70
    0
 43
0
 10
-87.13735
 20
109.282537
 10
-86.32455
 20
109.282899
 10
-86.326781
 20
114.291778
 10
-87.13958100000001
 20
114.291416
 10
-87.141141
 20
117.791536
 10
-86.32834099999999
 20
117.791898
 10
-86.328777
 20
118.772338
 10
-72.358779
 20
118.778562
 10
-72.35834199999999
 20
117.798122
 10
-71.545542
 20
117.798484
 10
-71.543983
 20
114.298364
 10
-72.35678299999999
 20
114.298002
 10
-72.354551
 20
109.289123
 10
-71.541751
 20
109.289485
 10
-71.540192
 20
105.789365
 10
-72.352992
 20
105.789003
 10
-72.352555
 20
104.808563
 10
-86.322554
 20
104.802339
 10
-86.32299
 20
105.782779
 10
-87.13579
 20
105.782417
 10
-87.13735
 20
109.282537
  0
LWPOLYLINE
  5
6C
100
AcDbEntity
  8
0
  6
ByLayer
 62
  256
370
   -1
100
AcDbPolyline
 90
   21
 70
    0
 43
0
 10
-34.245395
 20
88.74553899999999
 10
-34.244958
 20
87.76509900000001
 10
-33.432158
 20
87.765461
 10
-33.430599
 20
84.265342
 10
-34.243398
 20
84.26497999999999
 10
-34.241167
 20
79.2561
 10
-33.428367
 20
79.256462
 10
-33.426808
 20
75.756343
 10
-34.239608
 20
75.75597999999999
 10
-34.239171
 20
74.77554000000001
 10
-48.209169
 20
74.769317
 10
-48.209606
 20
75.749756
 10
-49.022406
 20
75.749394
 10
-49.023965
 20
79.249514
 10
-48.211166
 20
79.249876
 10
-48.213397
 20
84.25875600000001
 10
-49.026197
 20
84.258393
 10
-49.027756
 20
87.75851299999999
 10
-48.214956
 20
87.758875
 10
-48.215393
 20
88.739315
 10
-34.245395
 20
88.74553899999999
  0
LWPOLYLINE
  5
6D
100
AcDbEntity
  8
0
  6
ByLayer
 62
  256
370
   -1
100
AcDbPolyline
 90
   21
 70
    0
 43
0
 10
-48.206906
 20
69.689317
 10
-34.236907
 20
69.69554100000001
 10
-34.236471
 20
68.715101
 10
-33.423671
 20
68.715463
 10
-33.422111
 20
65.215344
 10
-34.234911
 20
65.21498099999999
 10
-34.23268
 20
60.206102
 10
-33.41988
 20
60.206464
 10
-33.41832
 20
56.706344
 10
-34.23112
 20
56.705982
 10
-34.230684
 20
55.725542
 10
-48.200682
 20
55.719318
 10
-48.201119
 20
56.699758
 10
-49.013919
 20
56.699396
 10
-49.015478
 20
60.199516
 10
-48.202678
 20
60.199878
 10
-48.20491
 20
65.20875700000001
 10
-49.01771
 20
65.208395
 10
-49.019269
 20
68.70851500000001
 10
-48.206469
 20
68.708877
 10
-48.206906
 20
69.689317
  0
LWPOLYLINE
  5
6E
100
AcDbEntity
  8
0
  6
ByLayer
 62
  256
370
   -1
100
AcDbPolyline
 90
   21
 70
    0
 43
0
 10
-90.572547
 20
66.18100200000001
 10
-90.570988
 20
62.680882
 10
-91.383788
 20
62.68052
 10
-91.383351
 20
61.70008
 10
-105.35335
 20
61.693856
 10
-105.353786
 20
62.674296
 10
-106.166586
 20
62.673934
 10
-106.168146
 20
66.174054
 10
-105.355346
 20
66.17441599999999
 10
-105.357577
 20
71.183295
 10
-106.170377
 20
71.18293300000001
 10
-106.171937
 20
74.683053
 10
-105.359137
 20
74.683415
 10
-105.359574
 20
75.663855
 10
-91.38957499999999
 20
75.670079
 10
-91.389138
 20
74.689639
 10
-90.57633800000001
 20
74.690001
 10
-90.57477900000001
 20
71.189881
 10
-91.387579
 20
71.189519
 10
-91.385347
 20
66.18064
 10
-90.572547
 20
66.18100200000001
  0
LWPOLYLINE
  5
6F
100
AcDbEntity
  8
0
  6
ByLayer
 62
  256
370
   -1
100
AcDbPolyline
 90
   21
 70
    0
 43
0
 10
-49.030893
 20
94.799392
 10
-49.032453
 20
98.29951199999999
 10
-48.219653
 20
98.299874
 10
-48.221884
 20
103.308754
 10
-49.034684
 20
103.308392
 10
-49.036244
 20
106.808511
 10
-48.223444
 20
106.808873
 10
-48.223881
 20
107.789313
 10
-34.253882
 20
107.795537
 10
-34.253445
 20
106.815097
 10
-33.440645
 20
106.815459
 10
-33.439086
 20
103.31534
 10
-34.251886
 20
103.314978
 10
-34.249654
 20
98.30609800000001
 10
-33.436854
 20
98.30646
 10
-33.435295
 20
94.806341
 10
-34.248095
 20
94.805978
 10
-34.247658
 20
93.82553900000001
 10
-48.217657
 20
93.819315
 10
-48.218093
 20
94.799755
 10
-49.030893
 20
94.799392
  0
LWPOLYLINE
  5
70
100
AcDbEntity
  8
0
  6
ByLayer
 62
  256
370
   -1
100
AcDbPolyline
 90
   21
 70
    0
 43
0
 10
-105.374552
 20
109.283291
 10
-106.187352
 20
109.282929
 10
-106.188911
 20
112.783049
 10
-105.376111
 20
112.783411
 10
-105.376548
 20
113.763851
 10
-91.406549
 20
113.770075
 10
-91.406113
 20
112.789635
 10
-90.59331299999999
 20
112.789997
 10
-90.591753
 20
109.289878
 10
-91.40455300000001
 20
109.289515
 10
-91.402322
 20
104.280636
 10
-90.589522
 20
104.280998
 10
-90.587962
 20
100.780878
 10
-91.400762
 20
100.780516
 10
-91.400325
 20
99.800076
 10
-105.370324
 20
99.793852
 10
-105.370761
 20
100.774292
 10
-106.183561
 20
100.77393
 10
-106.18512
 20
104.27405
 10
-105.37232
 20
104.274412
 10
-105.374552
 20
109.283291
  0
LWPOLYLINE
  5
71
100
AcDbEntity
  8
0
  6
ByLayer
 62
  256
370
   -1
100
AcDbPolyline
 90
   21
 70
    0
 43
0
 10
-67.27566899999999
 20
111.800386
 10
-67.276106
 20
112.780826
 10
-53.306108
 20
112.787049
 10
-53.305671
 20
111.80661
 10
-52.492871
 20
111.806972
 10
-52.491312
 20
108.306852
 10
-53.304111
 20
108.30649
 10
-53.30188
 20
103.29761
 10
-52.48908
 20
103.297973
 10
-52.487521
 20
99.797853
 10
-53.30032
 20
99.79749099999999
 10
-53.299884
 20
98.81705100000001
 10
-67.269882
 20
98.810827
 10
-67.270319
 20
99.791267
 10
-68.083119
 20
99.790905
 10
-68.084678
 20
103.291024
 10
-67.271878
 20
103.291386
 10
-67.27410999999999
 20
108.300266
 10
-68.08691
 20
108.299904
 10
-68.088469
 20
111.800024
 10
-67.27566899999999
 20
111.800386
  0
LWPOLYLINE
  5
72
100
AcDbEntity
  8
0
  6
ByLayer
 62
  256
370
   -1
100
AcDbPolyline
 90
   21
 70
    0
 43
0
 10
-52.484384
 20
92.756974
 10
-52.482824
 20
89.256854
 10
-53.295624
 20
89.25649199999999
 10
-53.293393
 20
84.247612
 10
-52.480593
 20
84.247974
 10
-52.479033
 20
80.747855
 10
-53.291833
 20
80.74749300000001
 10
-53.291396
 20
79.767053
 10
-67.26139499999999
 20
79.760829
 10
-67.261832
 20
80.741269
 10
-68.07463199999999
 20
80.74090700000001
 10
-68.07619099999999
 20
84.24102600000001
 10
-67.263391
 20
84.241388
 10
-67.26562300000001
 20
89.25026800000001
 10
-68.078423
 20
89.249906
 10
-68.079982
 20
92.75002499999999
 10
-67.26718200000001
 20
92.750388
 10
-67.267619
 20
93.73082700000001
 10
-53.29762
 20
93.73705099999999
 10
-53.297184
 20
92.75661100000001
 10
-52.484384
 20
92.756974
  0
LWPOLYLINE
  5
73
100
AcDbEntity
  8
0
  6
ByLayer
 62
  256
370
   -1
100
AcDbPolyline
 90
   21
 70
    0
 43
0
 10
-53.284905
 20
65.197614
 10
-52.472106
 20
65.197976
 10
-52.470546
 20
61.697857
 10
-53.283346
 20
61.697495
 10
-53.282909
 20
60.717055
 10
-67.25290800000001
 20
60.710831
 10
-67.253345
 20
61.691271
 10
-68.06614500000001
 20
61.690908
 10
-68.06770400000001
 20
65.191028
 10
-67.254904
 20
65.19139
 10
-67.257136
 20
70.20027
 10
-68.069936
 20
70.19990799999999
 10
-68.071495
 20
73.70002700000001
 10
-67.258695
 20
73.700389
 10
-67.25913199999999
 20
74.680829
 10
-53.289133
 20
74.68705300000001
 10
-53.288696
 20
73.706613
 10
-52.475896
 20
73.706975
 10
-52.474337
 20
70.206856
 10
-53.287137
 20
70.20649400000001
 10
-53.284905
 20
65.197614
  0
LWPOLYLINE
  5
74
100
AcDbEntity
  8
0
  6
ByLayer
 62
  256
370
   -1
100
AcDbPolyline
 90
   21
 70
    0
 43
0
 10
-87.115679
 20
60.641541
 10
-86.302879
 20
60.641903
 10
-86.303316
 20
61.622343
 10
-72.33331699999999
 20
61.628567
 10
-72.33288
 20
60.648127
 10
-71.52007999999999
 20
60.64849
 10
-71.51852100000001
 20
57.14837
 10
-72.331321
 20
57.148008
 10
-72.329089
 20
52.139128
 10
-71.51629
 20
52.13949
 10
-71.51473
 20
48.639371
 10
-72.32753
 20
48.639009
 10
-72.327093
 20
47.658569
 10
-86.29709200000001
 20
47.652345
 10
-86.297529
 20
48.632785
 10
-87.11032899999999
 20
48.632423
 10
-87.11188799999999
 20
52.132542
 10
-86.299088
 20
52.132904
 10
-86.30132
 20
57.141784
 10
-87.11412
 20
57.141422
 10
-87.115679
 20
60.641541
  0
LWPOLYLINE
  5
75
100
AcDbEntity
  8
0
  6
ByLayer
 62
  256
370
   -1
100
AcDbPolyline
 90
   21
 70
    0
 43
0
 10
-53.280646
 20
55.637055
 10
-53.280209
 20
54.656615
 10
-52.467409
 20
54.656977
 10
-52.46585
 20
51.156858
 10
-53.27865
 20
51.156496
 10
-53.276418
 20
46.147616
 10
-52.463618
 20
46.147978
 10
-52.462059
 20
42.647859
 10
-53.274859
 20
42.647496
 10
-53.274422
 20
41.667057
 10
-67.244421
 20
41.660833
 10
-67.244857
 20
42.641272
 10
-68.05765700000001
 20
42.64091
 10
-68.059217
 20
46.14103
 10
-67.24641699999999
 20
46.141392
 10
-67.248648
 20
51.150272
 10
-68.061448
 20
51.14991
 10
-68.063008
 20
54.650029
 10
-67.250208
 20
54.650391
 10
-67.25064500000001
 20
55.630831
 10
-53.280646
 20
55.637055
  0
LWPOLYLINE
  5
76
100
AcDbEntity
  8
0
  6
ByLayer
 62
  256
370
   -1
100
AcDbPolyline
 90
   21
 70
    0
 43
0
 10
-90.566292
 20
52.139883
 10
-91.379092
 20
52.139521
 10
-91.37685999999999
 20
47.130642
 10
-90.56406
 20
47.131004
 10
-90.562501
 20
43.630884
 10
-91.37530099999999
 20
43.630522
 10
-91.374864
 20
42.650082
 10
-105.344862
 20
42.643858
 10
-105.345299
 20
43.624298
 10
-106.158099
 20
43.623936
 10
-106.159658
 20
47.124055
 10
-105.346859
 20
47.124418
 10
-105.34909
 20
52.133297
 10
-106.16189
 20
52.132935
 10
-106.163449
 20
55.633055
 10
-105.35065
 20
55.633417
 10
-105.351086
 20
56.613857
 10
-91.38108800000001
 20
56.620081
 10
-91.380651
 20
55.639641
 10
-90.567851
 20
55.640003
 10
-90.566292
 20
52.139883
  0
LWPOLYLINE
  5
77
100
AcDbEntity
  8
0
  6
ByLayer
 62
  256
370
   -1
100
AcDbPolyline
 90
   21
 70
    0
 43
0
 10
-124.406239
 20
68.174808
 10
-125.219039
 20
68.174446
 10
-125.220598
 20
71.674566
 10
-124.407798
 20
71.67492799999999
 10
-124.408235
 20
72.655368
 10
-110.438236
 20
72.661592
 10
-110.4378
 20
71.681152
 10
-109.625
 20
71.68151400000001
 10
-109.62344
 20
68.181394
 10
-110.43624
 20
68.181032
 10
-110.434009
 20
63.172153
 10
-109.621209
 20
63.172515
 10
-109.619649
 20
59.672395
 10
-110.432449
 20
59.672033
 10
-110.432013
 20
58.691593
 10
-124.402011
 20
58.685369
 10
-124.402448
 20
59.665809
 10
-125.215248
 20
59.665447
 10
-125.216807
 20
63.165567
 10
-124.404007
 20
63.165929
 10
-124.406239
 20
68.174808
  0
LWPOLYLINE
  5
78
100
AcDbEntity
  8
0
  6
ByLayer
 62
  256
370
   -1
100
AcDbPolyline
 90
   21
 70
    0
 43
0
 10
-71.531705
 20
86.739367
 10
-72.344505
 20
86.73900500000001
 10
-72.34406799999999
 20
85.758565
 10
-86.314066
 20
85.752341
 10
-86.314503
 20
86.732781
 10
-87.127303
 20
86.73241899999999
 10
-87.128862
 20
90.23253800000001
 10
-86.316063
 20
90.232901
 10
-86.31829399999999
 20
95.24178000000001
 10
-87.131094
 20
95.241418
 10
-87.132653
 20
98.74153800000001
 10
-86.31985299999999
 20
98.7419
 10
-86.32029
 20
99.72234
 10
-72.350292
 20
99.72856400000001
 10
-72.34985500000001
 20
98.748124
 10
-71.537055
 20
98.748486
 10
-71.53549599999999
 20
95.248366
 10
-72.34829499999999
 20
95.24800399999999
 10
-72.346064
 20
90.239125
 10
-71.533264
 20
90.239487
 10
-71.531705
 20
86.739367
  0
LWPOLYLINE
  5
79
100
AcDbEntity
  8
0
  6
ByLayer
 62
  256
370
   -1
100
AcDbPolyline
 90
   21
 70
    0
 43
0
 10
-91.39183800000001
 20
80.750078
 10
-105.361837
 20
80.743854
 10
-105.362274
 20
81.724294
 10
-106.175074
 20
81.723932
 10
-106.176633
 20
85.224052
 10
-105.363833
 20
85.224414
 10
-105.366065
 20
90.233293
 10
-106.178864
 20
90.23293099999999
 10
-106.180424
 20
93.733051
 10
-105.367624
 20
93.733413
 10
-105.368061
 20
94.713853
 10
-91.398062
 20
94.720077
 10
-91.39762500000001
 20
93.739637
 10
-90.584825
 20
93.739999
 10
-90.58326599999999
 20
90.239879
 10
-91.396066
 20
90.23951700000001
 10
-91.393834
 20
85.230638
 10
-90.581034
 20
85.23099999999999
 10
-90.579475
 20
81.73088
 10
-91.392275
 20
81.730518
 10
-91.39183800000001
 20
80.750078
  0
LWPOLYLINE
  5
7A
100
AcDbEntity
  8
0
  6
ByLayer
 62
  256
370
   -1
100
AcDbPolyline
 90
   21
 70
    0
 43
0
 10
-124.393524
 20
39.635371
 10
-124.393961
 20
40.615811
 10
-125.206761
 20
40.615449
 10
-125.20832
 20
44.115569
 10
-124.39552
 20
44.115931
 10
-124.397752
 20
49.12481
 10
-125.210552
 20
49.124448
 10
-125.212111
 20
52.624568
 10
-124.399311
 20
52.62493
 10
-124.399748
 20
53.60537
 10
-110.429749
 20
53.611594
 10
-110.429312
 20
52.631154
 10
-109.616513
 20
52.631516
 10
-109.614953
 20
49.131396
 10
-110.427753
 20
49.131034
 10
-110.425521
 20
44.122155
 10
-109.612722
 20
44.122517
 10
-109.611162
 20
40.622397
 10
-110.423962
 20
40.622035
 10
-110.423525
 20
39.641595
 10
-124.393524
 20
39.635371
  0
LWPOLYLINE
  5
7B
100
AcDbEntity
  8
0
  6
ByLayer
 62
  256
370
   -1
100
AcDbPolyline
 90
   21
 70
    0
 43
0
 10
-125.225294
 20
82.215565
 10
-124.412495
 20
82.21592699999999
 10
-124.414726
 20
87.224806
 10
-125.227526
 20
87.22444400000001
 10
-125.229085
 20
90.724564
 10
-124.416285
 20
90.724926
 10
-124.416722
 20
91.705366
 10
-110.446724
 20
91.71159
 10
-110.446287
 20
90.73115
 10
-109.633487
 20
90.731512
 10
-109.631928
 20
87.231393
 10
-110.444727
 20
87.23103
 10
-110.442496
 20
82.222151
 10
-109.629696
 20
82.22251300000001
 10
-109.628137
 20
78.722393
 10
-110.440937
 20
78.722031
 10
-110.4405
 20
77.741591
 10
-124.410498
 20
77.735367
 10
-124.410935
 20
78.715807
 10
-125.223735
 20
78.715445
 10
-125.225294
 20
82.215565
  0
LINE
  5
7C
100
AcDbEntity
  8
0
  6
ByLayer
 62
  256
370
   -1
100
AcDbLine
 10
-86.29709200000001
 20
47.652345
 11
-72.327093
 21
47.658569
  0
LWPOLYLINE
  5
7D
100
AcDbEntity
  8
0
  6
ByLayer
 62
  256
370
   -1
100
AcDbPolyline
 90
   15
 70
    0
 43
0
 10
-86.832615
 20
15.23974
 42
-0.04527900000000001
 10
-85.75263
 20
15.338226
 10
-73.02610799999999
 20
15.343896
 42
-0.05805500000000004
 10
-71.646726
 20
15.183818
 10
-25.791314
 20
4.373819000000003
 42
-0.4122819999999999
 10
-21.319144
 20
-2.804240999999999
 10
-34.275974
 20
-59.43729900000001
 42
-0.3220410000000002
 10
-39.52783
 20
-64.069383
 10
-84.640551
 20
-68.58065499999999
 42
-0.04987600000000014
 10
-85.83459499999999
 20
-68.58065499999999
 10
-129.834595
 20
-64.180655
 42
-0.3853140000000008
 10
-135.237573
 20
-58.210431
 10
-135.237573
 20
1.360238000000002
 42
-0.3620170000000008
 10
-130.320231
 20
7.261751000000004
 10
-86.832615
 20
15.23974
  0
CIRCLE
  5
7E
100
AcDbEntity
  8
0
  6
ByLayer
 62
  256
370
   -1
100
AcDbCircle
 10
-27.168022
 20
-1.466102
 40
1.5
  0
CIRCLE
  5
7F
100
AcDbEntity
  8
0
  6
ByLayer
 62
  256
370
   -1
100
AcDbCircle
 10
-129.237573
 20
1.360238
 40
1.5
  0
CIRCLE
  5
80
100
AcDbEntity
  8
0
  6
ByLayer
 62
  256
370
   -1
100
AcDbCircle
 10
-129.237573
 20
-58.210431
 40
1.5
  0
CIRCLE
  5
81
100
AcDbEntity
  8
0
  6
ByLayer
 62
  256
370
   -1
100
AcDbCircle
 10
-40.124852
 20
-58.099159
 40
1.5
  0
LWPOLYLINE
  5
82
100
AcDbEntity
  8
0
  6
ByLayer
 62
  256
370
   -1
100
AcDbPolyline
 90
   15
 70
    0
 43
0
 10
-86.832615
 20
-85.754572
 42
-0.04527899999999996
 10
-85.75263
 20
-85.656085
 10
-73.02610799999999
 20
-85.65041500000001
 42
-0.05805499999999988
 10
-71.646726
 20
-85.81049400000002
 10
-25.791314
 20
-96.620492
 42
-0.4122820000000002
 10
-21.319144
 20
-103.798552
 10
-34.275974
 20
-160.43161
 42
-0.3220410000000007
 10
-39.52783
 20
-165.063694
 10
-84.640551
 20
-169.574966
 42
-0.04987600000000014
 10
-85.83459499999999
 20
-169.574966
 10
-129.834595
 20
-165.174966
 42
-0.3853140000000015
 10
-135.237573
 20
-159.204743
 10
-135.237573
 20
-99.634073
 42
-0.3620170000000002
 10
-130.320231
 20
-93.732561
 10
-86.832615
 20
-85.754572
  0
CIRCLE
  5
83
100
AcDbEntity
  8
0
  6
ByLayer
 62
  256
370
   -1
100
AcDbCircle
 10
-27.168022
 20
-102.460413
 40
1.5
  0
CIRCLE
  5
84
100
AcDbEntity
  8
0
  6
ByLayer
 62
  256
370
   -1
100
AcDbCircle
 10
-129.237573
 20
-99.634073
 40
1.5
  0
CIRCLE
  5
85
100
AcDbEntity
  8
0
  6
ByLayer
 62
  256
370
   -1
100
AcDbCircle
 10
-129.237573
 20
-159.204743
 40
1.5
  0
CIRCLE
  5
86
100
AcDbEntity
  8
0
  6
ByLayer
 62
  256
370
   -1
100
AcDbCircle
 10
-40.124852
 20
-159.093471
 40
1.5
  0
CIRCLE
  5
87
100
AcDbEntity
  8
0
  6
ByLayer
 62
  256
370
   -1
100
AcDbCircle
 10
-129.23766
 20
115.950378
 40
1.5
  0
CIRCLE
  5
88
100
AcDbEntity
  8
0
  6
ByLayer
 62
  256
370
   -1
100
AcDbCircle
 10
4.572187
 20
115.406578
 40
1.5
  0
LINE
  5
89
100
AcDbEntity
  8
0
  6
ByLayer
 62
  256
370
   -1
100
AcDbLine
 10
-99.990067
 20
128.634163
 11
-130.546087
 21
121.805976
  0
ARC
  5
8A
100
AcDbEntity
  8
0
  6
ByLayer
 62
  256
370
   -1
100
AcDbCircle
 10
-129.2375785643631
 20
115.95040268037
 40
5.999994435638743
100
AcDbArc
 50
102.5965772548352
 51
180.0000446942824
  0
ARC
  5
8B
100
AcDbEntity
  8
0
  6
ByLayer
 62
  256
370
   -1
100
AcDbCircle
 10
4.572192584482876
 20
115.4065847267675
 40
5.999994419634245
100
AcDbArc
 50
0.002122554994437515
 51
83.45550095646276
  0
LINE
  5
8C
100
AcDbEntity
  8
0
  6
ByLayer
 62
  256
370
   -1
100
AcDbLine
 10
5.256041000000001
 20
121.367481
 11
-59.002963
 21
128.739487
  0
ARC
  5
8D
100
AcDbEntity
  8
0
  6
ByLayer
 62
  256
370
   -1
100
AcDbCircle
 10
-59.68681601739901
 20
122.7786412289592
 40
5.999944771040886
100
AcDbArc
 50
83.45540233162627
 51
90.00000938323463
  0
LINE
  5
8E
100
AcDbEntity
  8
0
  6
ByLayer
 62
  256
370
   -1
100
AcDbLine
 10
-59.686817
 20
128.778586
 11
-98.68155299999999
 21
128.778586
  0
ARC
  5
8F
100
AcDbEntity
  8
0
  6
ByLayer
 62
  256
370
   -1
100
AcDbCircle
 10
-98.68155502204337
 20
122.7786358556982
 40
5.999950144302161
100
AcDbArc
 50
89.99998069074766
 51
102.5967064311445
  0
CIRCLE
  5
90
100
AcDbEntity
  8
0
  6
ByLayer
 62
  256
370
   -1
100
AcDbCircle
 10
-129.23766
 20
240.8955064919885
 40
1.5
  0
CIRCLE
  5
91
100
AcDbEntity
  8
0
  6
ByLayer
 62
  256
370
   -1
100
AcDbCircle
 10
4.572186999999985
 20
240.3517074919885
 40
1.5
  0
LINE
  5
92
100
AcDbEntity
  8
0
  6
ByLayer
 62
  256
370
   -1
100
AcDbLine
 10
-99.99006700000001
 20
253.5792924919884
 11
-130.546087
 21
246.7511044919885
  0
ARC
  5
93
100
AcDbEntity
  8
0
  6
ByLayer
 62
  256
370
   -1
100
AcDbCircle
 10
-129.237578564363
 20
240.8955311723585
 40
5.999994435638779
100
AcDbArc
 50
102.5965772548354
 51
180.0000446942828
  0
ARC
  5
94
100
AcDbEntity
  8
0
  6
ByLayer
 62
  256
370
   -1
100
AcDbCircle
 10
4.572192584482869
 20
240.351713218756
 40
5.999994419634237
100
AcDbArc
 50
0.002122554994844626
 51
83.45550095646284
  0
LINE
  5
95
100
AcDbEntity
  8
0
  6
ByLayer
 62
  256
370
   -1
100
AcDbLine
 10
5.256040999999983
 20
246.3126094919885
 11
-59.00296300000002
 21
253.6846154919884
  0
ARC
  5
96
100
AcDbEntity
  8
0
  6
ByLayer
 62
  256
370
   -1
100
AcDbCircle
 10
-59.68681601739927
 20
247.7237697209476
 40
5.9999447710409
100
AcDbArc
 50
83.45540233162387
 51
90.00000938323225
  0
LINE
  5
97
100
AcDbEntity
  8
0
  6
ByLayer
 62
  256
370
   -1
100
AcDbLine
 10
-59.68681700000001
 20
253.7237144919885
 11
-98.68155300000001
 21
253.7237144919885
  0
ARC
  5
98
100
AcDbEntity
  8
0
  6
ByLayer
 62
  256
370
   -1
100
AcDbCircle
 10
-98.68155955217333
 20
247.7237648476867
 40
5.999949644305416
100
AcDbArc
 50
89.9999374308286
 51
102.5966631712255
  0
CIRCLE
  5
99
100
AcDbEntity
  8
0
  6
ByLayer
 62
  256
370
   -1
100
AcDbCircle
 10
4.575296
 20
53.32817
 40
1.5
  0
CIRCLE
  5
9A
100
AcDbEntity
  8
0
  6
ByLayer
 62
  256
370
   -1
100
AcDbCircle
 10
-21.150126
 20
34.904806
 40
1.5
  0
CIRCLE
  5
9B
100
AcDbEntity
  8
0
  6
ByLayer
 62
  256
370
   -1
100
AcDbCircle
 10
-129.237573
 20
36.104733
 40
1.5
  0
ARC
  5
9C
100
AcDbEntity
  8
0
  6
ByLayer
 62
  256
370
   -1
100
AcDbCircle
 10
-129.2375759011757
 20
36.10472917638695
 40
5.999997098825478
100
AcDbArc
 50
179.9999634871674
 51
280.3955976074333
  0
LINE
  5
9D
100
AcDbEntity
  8
0
  6
ByLayer
 62
  256
370
   -1
100
AcDbLine
 10
-128.154915
 20
30.20321999999999
 11
-86.832615
 21
37.783973
  0
ARC
  5
9E
100
AcDbEntity
  8
0
  6
ByLayer
 62
  256
370
   -1
100
AcDbCircle
 10
-85.74996428537349
 20
31.8824947612108
 40
5.999964830962242
100
AcDbArc
 50
90.0254558496279
 51
100.3955552383899
  0
LINE
  5
9F
100
AcDbEntity
  8
0
  6
ByLayer
 62
  256
370
   -1
100
AcDbLine
 10
-85.75263
 20
37.882459
 11
-73.02610799999999
 21
37.888129
  0
ARC
  5
A0
100
AcDbEntity
  8
0
  6
ByLayer
 62
  256
370
   -1
100
AcDbCircle
 10
-73.02343136493894
 20
31.88813067555679
 40
5.999998921474615
100
AcDbArc
 50
76.73525181597722
 51
90.02555998749145
  0
LINE
  5
A1
100
AcDbEntity
  8
0
  6
ByLayer
 62
  256
370
   -1
100
AcDbLine
 10
-71.646726
 20
37.728051
 11
-34.901245
 21
29.065636
  0
ARC
  5
A2
100
AcDbEntity
  8
0
  6
ByLayer
 62
  256
370
   -1
100
AcDbCircle
 10
-33.52453490844342
 20
34.90558187032509
 40
6.000024870325184
100
AcDbArc
 50
256.7352638577233
 51
269.9999895764457
  0
LINE
  5
A3
100
AcDbEntity
  8
0
  6
ByLayer
 62
  256
370
   -1
100
AcDbLine
 10
-33.524536
 20
28.905557
 11
-21.149074
 21
28.905557
  0
ARC
  5
A4
100
AcDbEntity
  8
0
  6
ByLayer
 62
  256
370
   -1
100
AcDbCircle
 10
-21.14907114359212
 20
34.90554923673804
 40
5.999992236738716
100
AcDbArc
 50
269.9999727232787
 51
305.6085132212532
  0
LINE
  5
A5
100
AcDbEntity
  8
0
  6
ByLayer
 62
  256
370
   -1
100
AcDbLine
 10
-17.655613
 20
30.02747
 11
8.068757
 21
48.450083
  0
ARC
  5
A6
100
AcDbEntity
  8
0
  6
ByLayer
 62
  256
370
   -1
100
AcDbCircle
 10
4.575289881013264
 20
53.32817165921931
 40
6.000005123218272
100
AcDbArc
 50
305.6085305144675
 51
0.002151844110776198
  0
CIRCLE
  5
A7
100
AcDbEntity
  8
0
  6
ByLayer
 62
  256
370
   -1
100
AcDbCircle
 10
4.575295999999986
 20
178.2732984919885
 40
1.5
  0
CIRCLE
  5
A8
100
AcDbEntity
  8
0
  6
ByLayer
 62
  256
370
   -1
100
AcDbCircle
 10
-21.15012600000001
 20
159.8499344919885
 40
1.5
  0
CIRCLE
  5
A9
100
AcDbEntity
  8
0
  6
ByLayer
 62
  256
370
   -1
100
AcDbCircle
 10
-129.237573
 20
161.0498614919885
 40
1.5
  0
ARC
  5
AA
100
AcDbEntity
  8
0
  6
ByLayer
 62
  256
370
   -1
100
AcDbCircle
 10
-129.2375759011758
 20
161.0498576683755
 40
5.999997098825464
100
AcDbArc
 50
179.9999634871679
 51
280.3955976074336
  0
LINE
  5
AB
100
AcDbEntity
  8
0
  6
ByLayer
 62
  256
370
   -1
100
AcDbLine
 10
-128.154915
 20
155.1483484919886
 11
-86.83261500000002
 21
162.7291014919885
  0
ARC
  5
AC
100
AcDbEntity
  8
0
  6
ByLayer
 62
  256
370
   -1
100
AcDbCircle
 10
-85.74995877536973
 20
156.8276237531993
 40
5.999965333412771
100
AcDbArc
 50
90.0255084644656
 51
100.3956078532276
  0
LINE
  5
AD
100
AcDbEntity
  8
0
  6
ByLayer
 62
  256
370
   -1
100
AcDbLine
 10
-85.75263000000001
 20
162.8275884919885
 11
-73.02610800000001
 21
162.8332584919885
  0
ARC
  5
AE
100
AcDbEntity
  8
0
  6
ByLayer
 62
  256
370
   -1
100
AcDbCircle
 10
-73.02343565668676
 20
156.8332596675453
 40
5.999999419561554
100
AcDbArc
 50
76.73521083067477
 51
90.02551900218896
  0
LINE
  5
AF
100
AcDbEntity
  8
0
  6
ByLayer
 62
  256
370
   -1
100
AcDbLine
 10
-71.64672600000002
 20
162.6731794919885
 11
-34.90124500000002
 21
154.0107644919885
  0
ARC
  5
B0
100
AcDbEntity
  8
0
  6
ByLayer
 62
  256
370
   -1
100
AcDbCircle
 10
-33.52453490844345
 20
159.8507103623136
 40
6.000024870325182
100
AcDbArc
 50
256.7352638577235
 51
269.9999895764458
  0
LINE
  5
B1
100
AcDbEntity
  8
0
  6
ByLayer
 62
  256
370
   -1
100
AcDbLine
 10
-33.52453600000001
 20
153.8506854919885
 11
-21.14907400000001
 21
153.8506854919885
  0
ARC
  5
B2
100
AcDbEntity
  8
0
  6
ByLayer
 62
  256
370
   -1
100
AcDbCircle
 10
-21.14907270051103
 20
159.8506782287265
 40
5.999992736738151
100
AcDbArc
 50
269.9999875907793
 51
305.6085280887537
  0
LINE
  5
B3
100
AcDbEntity
  8
0
  6
ByLayer
 62
  256
370
   -1
100
AcDbLine
 10
-17.65561300000002
 20
154.9725994919885
 11
8.068756999999986
 21
173.3952114919885
  0
ARC
  5
B4
100
AcDbEntity
  8
0
  6
ByLayer
 62
  256
370
   -1
100
AcDbCircle
 10
4.575289881013263
 20
178.2733001512078
 40
6.000005123218259
100
AcDbArc
 50
305.6085305144673
 51
0.002151844110572642
  0
LINE
  5
B5
100
AcDbEntity
  8
0
  6
ByLayer
 62
  256
370
   -1
100
AcDbLine
 10
-135.237573
 20
115.950398
 11
-135.237573
 21
36.104733
  0
LINE
  5
B6
100
AcDbEntity
  8
0
  6
ByLayer
 62
  256
370
   -1
100
AcDbLine
 10
10.575295
 20
53.328397
 11
10.572187
 21
115.406807
  0
LINE
  5
B7
100
AcDbEntity
  8
0
  6
ByLayer
 62
  256
370
   -1
100
AcDbLine
 10
-135.237573
 20
240.8955264919885
 11
-135.237573
 21
161.0498614919885
  0
LINE
  5
B8
100
AcDbEntity
  8
0
  6
ByLayer
 62
  256
370
   -1
100
AcDbLine
 10
10.57529499999999
 20
178.2735254919885
 11
10.57218699999999
 21
240.3519354919885
  0
ENDSEC
  0
SECTION
  2
OBJECTS
  0
DICTIONARY
  5
C
330
0
100
AcDbDictionary
281
    1
  3
ACAD_GROUP
350
D
  0
DICTIONARY
  5
D
330
C
100
AcDbDictionary
281
    1
  0
ENDSEC
  0
EOF
